<svg xmlns="http://www.w3.org/2000/svg" width="80" height="80" viewBox="0 0 8000 8000" fill-rule="evenodd"><path d="M8003.875 3990.822c0 2204.279-1786.791 3990.946-3990.884 3990.946-2204.279 0-3991.008-1786.667-3991.008-3990.946C21.984 1786.791 1808.712 0 4012.991 0c2204.093 0 3990.884 1786.791 3990.884 3990.822" fill="#44aed7"/><g fill="#fffffe"><path d="M4155.317 7917.581c57.24-1.364 114.171-4.031 171.349-7.938-.248-.062-.558-.248-.806-.372-56.806 3.969-113.736 6.76-170.543 8.31M131.751 3044.775l-14.139 63.876 14.946-65.488c-.124.62-.558 1.24-.806 1.612m99.411 2143.194c35.659 105.612 76.341 209.24 120.992 311.132-78.946-182.14-144.124-370.171-195.287-562.357 22.264 84.279 46.574 168.248 74.295 251.225m204.899 492.527c-29.147-59.039-56.806-118.822-83.101-179.287 26.543 60.465 53.954 120.434 83.101 179.287m5914.915 524.341c98.543-38.264 197.271-81.488 294.76-129.054-.062-.248-.124-.31-.124-.434-101.767 49.798-204.961 94.822-308.031 134.387l13.395-4.899m490.977-233.116c69.209-39.752 137.178-81.923 203.411-126.574-66.233 44.403-134.202 86.636-203.473 126.264a.83.83 0 0 0 .062.31M37.301 3730.728c.248 9.985.93 19.783 1.364 29.829l-1.24-32.186c0 .744 0 1.55-.124 2.357m329.798 977.24c-112.558-172.651-202.419-356.899-259.783-550.388 57.364 193.488 147.101 377.86 259.783 550.388m1850.295 1393.675c267.163 106.853 543.566 192.372 824.31 258.233-.186-.124-.248-.434-.248-.434-280.248-65.737-556.775-151.194-824.062-257.799m1131.783 322.171l57.736 10.356-57.985-10.729c.062.124.062.248.248.372m449.798 66.357l45.706 4.465-70.574-7.628 24.868 3.163m3836.403-839.07l12.341-25.302c1.054-2.481 2.233-4.837 3.163-7.194 3.473-7.752 6.326-15.752 9.798-23.504-8.186 18.915-16.682 37.52-25.302 56m-838.326 1174.512c10.109-9.612 19.287-19.907 29.209-29.519l-31.07 29.271c-.806 1.426-1.488 2.667-2.419 3.969 1.426-1.302 2.915-2.481 4.279-3.721m-4472 705.116c-62.325-29.395-123.783-60.403-184.62-92.961 60.837 32.248 122.171 63.752 184.62 92.961m-499.845-278.946c100.465 66.109 204.155 126.698 310.14 183.256-184.062-99.039-360.62-211.845-527.504-337.922 70.76 53.829 142.884 105.798 217.365 154.667m3888.744 301.271c321.985-147.473 624.497-336.93 896.559-565.147 16.744-24.806 31.07-51.349 43.349-78.512l-.372.372c-268.651 282.977-588.093 477.209-939.535 643.287M4645.674 7874.79c158.946-24.062 315.969-57.24 470.512-100.341-155.225 42.729-312.93 76.155-472 100.031.372.124.93.31 1.488.31M6892.93 6445.333l-.93 32.806c-3.349 61.147-12.341 122.481-27.597 181.643 194.853-259.597 342.326-547.411 448.434-848.992-60.465 54.264-122.914 106.419-188.465 155.101-64 165.395-141.457 326.078-231.442 479.442M2347.317 356.217c118.325-55.814 241.364-101.147 366.884-137.426 27.535-17.55 56.496-32.744 87.132-45.767-153.364 50.419-303.814 112.496-454.015 183.194m683.101-232.372c80.372-24.372 161.364-44.279 243.473-60.589-117.706 15.504-232.186 39.69-344.372 70.946l207.194-46.946c-37.643 8.62-72.558 21.519-106.295 36.589"/><path d="M5705.829 7556.899l8.124-3.845c351.442-166.078 670.884-360.31 939.535-643.287l.372-.372c25.922-56.93 42.977-118.76 52.837-183.38-258.171 346.357-591.876 637.519-1000.868 830.884m1569.86-2090.046c-19.039 86.202-42.667 171.907-68.589 257.054 63.38-49.674 124.031-102.016 181.829-156.899 93.829-343.132 137.612-698.294 137.922-1046.202-52.341-31.132-105.488-61.023-159.38-89.302 12.589 345.302-15.628 693.147-91.783 1035.349M5342.604 729.116c760.248 512.93 1330.419 1265.674 1671.628 2099.597 172.155 420.527 288 868.527 333.953 1325.147 57.736 28.775 114.295 59.287 170.047 90.977-51.969-838.574-339.969-1654.078-800.682-2348.527-484.341-729.922-1181.705-1349.705-2031.876-1659.658C4284.867 90.419 3850.387 17.798 3415.162 49.116c-103.38 22.45-203.969 52.155-302.202 88 795.535-100.155 1592.186 162.233 2229.644 592M186.387 2816.372l-20.155 84.093c11.969-41.736 24.744-83.287 38.077-124.651-7.876 12.341-14.388 25.675-17.923 40.558m-47.69 199.318c-.744 3.66-1.86 7.505-2.853 11.04l-4.093 18.046c.248-.372.682-.992.806-1.612 2.109-9.178 3.783-18.295 6.14-27.473m7783.938 1792.124c-3.721 18.853-8.31 37.457-12.837 56.186 5.147 21.643 6.14 43.535.744 65.736l51.473-212.899c9.612-39.628 4.589-76.651-9.551-111.132-8.124 67.597-16.496 135.318-29.829 202.109M5378.387 3677.086c-81.302-109.147-164.155-217.302-249.426-323.411l-545.86-146.543c-724.279-186.295-1458.977-344.992-2199.318-454.822l20.217 245.272c225.861 35.287 451.101 74.977 675.473 117.892 774.45 148.403 1543.504 334.574 2298.915 561.612m-3234.481-717.892l-17.798-243.101-262.139-33.054c-238.574-27.535-482.295-52.341-725.209-60.899-19.039 78.388-35.473 157.519-50.48 236.713 128.372 4.589 256.868 13.395 384.93 24.186 224 19.101 447.566 45.085 670.698 76.155"/><path d="M5513.394 3465.736c82.109 107.659 162.729 216.992 241.054 327.938l29.395 9.178C6205.24 3938.729 6623.41 4088 7027.317 4267.535c114.791 51.039 228.714 105.24 340.155 163.969-3.597-92.899-10.108-185.426-19.286-277.643-164.775-82.046-335.876-153.24-501.953-221.333-434.915-178.294-881.426-330.914-1332.837-466.79m2013.457 1055.07l48.124 28.155c85.706 53.147 253.892 152.062 315.845 265.116 24.062-69.581 43.535-141.643 58.295-215.69-32.124-70.574-102.202-130.108-164.899-178.48-83.101-64.434-172.961-121.798-265.984-175.07 5.023 78.884 8.496 158.14 9.116 237.271.186 12.899-.496 25.737-.496 38.698M369.085 2899.039c113.86-26.357 232.434-35.845 349.705-40.682 69.457-2.853 139.163-3.473 208.744-3.039 15.628-79.256 33.364-157.767 52.899-236.093-123.597-.248-246.76 4.279-368.62 16.62-109.395 10.915-324.403 28.651-401.054 129.985-26.977 86.698-51.101 173.954-71.876 261.954 34.605-78.76 151.752-111.008 230.202-128.744m2672.372 3460.403s.062.31.248.434c102.14 23.876 204.465 45.148 307.473 63.938-.186-.124-.186-.248-.248-.372-102.884-18.915-205.457-40.248-307.473-64M2365.736 2378.42c-11.225-436.341 8-880.496 104.496-1310.388 2.233-10.481 4.899-21.519 7.442-32.248-70.512-33.178-142.015-63.69-214.884-90.605-65.736 226.419-98.605 463.814-120.682 689.364-35.039 359.132-37.457 720.868-16 1081.55l257.675 36.217c-8.557-124.465-14.697-249.178-18.046-373.891m902.635 4415.38c202.791 356.279 447.07 725.891 789.954 972.465 78.574 56.496 167.938 108.341 263.132 141.457l123.535-9.489c65.116-6.512 129.798-15.07 194.481-24.744-206.016-47.504-392.62-196.713-532.093-333.333-213.706-209.488-386.233-457.302-537.798-711.194-36.837-62.078-72.186-124.961-106.915-188.155-103.38-16.496-206.326-35.845-308.713-57.488 37.147 70.884 74.977 141.023 114.419 210.481M2866.139 180.775c-21.581 4.775-43.163 8.496-64.682 14.078-29.209 7.194-58.295 15.628-87.256 23.938-36.155 23.194-69.829 50.171-101.023 79.752 20.589-11.163 40.682-23.07 61.643-33.675 63.132-31.814 127.008-59.225 191.318-84.093m1771.783 7751.442l239.008-53.829c-129.736 27.969-260.899 49.302-392.992 64.558 50.667 3.969 102.202 1.24 153.984-10.729M2533.488 825.55c62.264-203.969 156.031-419.721 304.868-568.248-133.829 68.341-261.271 148.589-382.202 238.822-50.233 81.923-92.527 167.876-127.814 257.054 69.148 20.589 137.613 44.775 205.148 72.372M4325.86 7909.271c.248.124.558.31.806.372l118.636-9.054c67.039-6.76 133.767-15.566 200.372-25.798-.558 0-1.116-.186-1.488-.31-105.674 15.876-211.783 27.287-318.325 34.791M2832.092 5104.124c-210.853-683.473-360.186-1391.876-428.093-2106.543l-260.093-38.388c37.892 424.372 106.791 845.892 194.667 1258.667 155.907 731.101 376.806 1461.085 702.14 2139.969a6218.329 6218.329 0 0 0 307.473 64.186c-211.225-423.256-378.171-868.341-516.093-1317.891m60.279-4961.55c-31.938 7.194-61.829 17.984-91.039 30.45 42.419-13.953 85.147-26.853 128.186-38.822l-37.147 8.372"/><path d="M2866.139 180.775c54.326-21.023 109.271-40.31 164.279-56.93 33.736-15.07 68.651-27.969 106.295-36.589l-207.194 46.946c-43.039 11.969-85.767 24.868-128.186 38.822-30.636 13.023-59.597 28.217-87.132 45.767l87.256-23.938c21.519-5.581 43.101-9.302 64.682-14.077M2164.929 6080.93c-21.333-8.744-42.357-18.233-63.69-27.163l-93.147-40.31-42.046-19.597-112-53.147c-10.233-4.837-20.217-10.171-30.512-15.256l-120.062-61.706-26.046-14.264-120.31-67.287-27.287-16.248-114.109-69.395c-11.411-7.07-22.76-14.698-34.17-21.953l-59.349-37.891c35.783 95.07 74.667 189.085 116.527 281.55l87.318 52.155c502.077 290.791 1056.62 492.217 1627.907 612.899-38.636-73.86-76.217-148.217-112.248-223.442-280.744-65.86-557.147-151.38-824.31-258.233l-52.465-20.713m5787.535-1475.225l11.287-92.279c-.186 1.798-.496 3.659-.744 5.581a1678.46 1678.46 0 0 1-12.961 81.55c.806 1.798 1.674 3.349 2.419 5.147m-808.93 1169.923l-36.341 26.542-40.682 28.217-21.147 14.76c-66.233 44.651-134.202 86.822-203.411 126.574 12.403 53.581 22.636 107.287 30.884 161.116 86.512-51.411 170.791-107.039 251.535-166.946 30.14-78.14 57.116-157.457 81.302-237.209l-37.953 29.147-24.186 17.798m-792.558 429.209c-4.341 1.674-9.054 3.349-13.395 4.899l-82.171 30.698c-6.822 2.419-13.643 4.465-20.465 6.822-36.403 13.023-72.806 25.24-109.395 37.085l-45.023 14.76c-39.69 12.527-79.628 24.31-119.814 35.721l-38.822 11.101c-41.054 11.411-82.543 21.954-123.845 32.186l-38.326 9.489-121.922 27.163-42.853 9.178-112.93 21.147-53.643 9.612-94.822 14.574-73.116 10.915-57.054 7.008c-29.333 3.535-58.977 5.582-88.372 8.682l-55.876 5.457c-93.705 9.24-187.597 16-281.86 20.465a7613.292 7613.292 0 0 1-10.171.372c-209.426 9.55-419.659 8.992-628.899-3.287l-22.202-1.302c-41.426-2.419-82.791-5.643-124.093-9.178l-45.519-3.721-101.705-10.046-45.706-4.465-24.868-3.163-78.76-9.55-103.38-13.891-15.628-2.171-28.278-4.465-126.946-20.279-14.202-2.481-57.736-10.356c36.403 73.116 74.357 145.426 113.488 216.992 223.628 35.659 448.806 59.287 673.426 71.504 865.24 46.884 1773.147-79.07 2546.481-474.977-10.853-55.752-23.504-109.953-36.837-161.55-97.488 47.566-196.217 90.791-294.76 129.055M1205.364 5765.83c-38.512-94.698-73.612-190.822-105.86-287.752-179.659-137.24-351.194-294.14-502.139-467.349-4.217-4.651-8.124-9.364-12.217-14.202l-37.271-44.031-27.597-33.922-20.403-25.488-35.473-46.512-10.419-13.953-40-55.566c-1.488-2.046-3.039-4.093-4.279-6.078-14.325-20.403-28.155-40.992-41.736-61.643-.31-.62-.62-.93-.868-1.364-112.682-172.527-202.418-356.899-259.783-550.388l-.186-.868c-7.132-23.628-13.581-47.38-19.659-71.38-.248-1.302-.62-2.853-.992-4.217-5.706-22.884-10.977-45.705-15.69-68.713-.682-2.915-1.116-5.767-1.612-8.434-4.403-21.83-8.496-43.597-11.969-65.613-.806-4.526-1.364-8.992-1.861-13.333-3.225-20.527-6.139-41.116-8.372-61.892-.806-6.45-1.489-12.899-1.985-19.163l-4.961-56.868c-.62-8.806-.992-17.737-1.364-26.543l-1.364-29.829c-7.814 144.186-7.752 288.93.434 433.116 117.395 665.55 609.612 1211.286 1167.628 1601.984m6181.892-192.124c-22.078 79.814-46.76 158.884-74.419 237.085 138.729-124.403 263.814-263.194 365.829-418.915 105.798-162.171 186.047-340.589 231.132-527.876-3.535-15.07-9.054-30.14-16.744-44.775-99.039 290.419-279.567 541.953-505.799 754.481"/><path d="M7952.464 4605.705l-2.419-5.147c-13.891 75.163-32.868 148.031-56.992 218.667 7.69 14.636 13.209 29.705 16.744 44.775 4.527-18.729 9.116-37.333 12.837-56.186 13.333-66.791 21.705-134.512 29.829-202.109M3799.038 6488.496c-150.45-16.62-301.023-39.132-450.853-66.481.248.434.496.992.744 1.426l57.985 10.729 14.202 2.481 126.946 20.279 43.907 6.636 103.38 13.891 78.76 9.55c23.38 2.915 47.008 5.023 70.574 7.628l101.705 10.047c15.008 1.488 30.326 2.543 45.519 3.721l124.093 9.178 22.202 1.302c47.814 2.791 95.814 3.721 143.876 5.271-161.86-5.643-323.163-17.86-483.039-35.659m2550.946-284.837c-394.171 152.62-810.233 246.698-1232.806 291.907l86.202-8.372 57.054-7.008 73.116-10.915 94.822-14.574 53.643-9.612 112.93-21.147 42.853-9.178 121.922-27.163 38.326-9.489 123.845-32.186 38.822-11.101 119.814-35.721 45.023-14.76 109.395-37.085 102.636-37.519c103.07-39.566 206.264-84.589 308.031-134.388-.124-.496-.248-.992-.31-1.426-97.364 47.938-196.279 91.163-295.318 129.736m-1297.178 298.357c-85.519 8-171.163 14.325-256.868 18.791 85.705-4.465 171.349-10.791 256.868-18.791m-769.116 22.264c158.698 5.644 317.643 5.271 476.465-1.674-158.76 6.822-317.829 7.318-476.465 1.675m831.318-28.403l-55.876 5.457 55.876-5.457m2273.922-928.868c-.558 1.984-.93 4.031-1.55 5.953 225.736-212.465 406.202-464.062 505.364-754.419-.744-1.364-1.178-2.915-1.922-4.465-100.403 289.798-278.45 540.651-501.891 752.93m-547.039 404.403c69.271-39.628 137.24-81.86 203.473-126.264l21.147-14.76 40.682-28.217c12.341-8.682 24.372-17.737 36.341-26.543l24.186-17.798c13.023-9.612 25.488-19.597 38.202-29.457.434-1.426.806-2.977 1.178-4.465-114.915 90.605-237.891 172.589-365.581 245.953.186.558.31 1.116.372 1.55m-5460.341-296.806l34.171 21.953c37.706 23.876 75.721 46.698 114.109 69.395l27.287 16.248 120.31 67.287 26.047 14.263 120.062 61.706 30.512 15.256c37.085 18.357 74.605 35.845 112 53.147l42.046 19.597 93.147 40.31 63.69 27.163c17.364 7.194 35.039 13.891 52.465 20.713 267.287 106.605 543.814 192.062 824.062 257.798-.248-.434-.496-.992-.744-1.612-610.915-143.318-1201.116-380.465-1720.248-725.891.31 1.116.93 2.171 1.178 3.287l59.907 39.38M38.666 3760.558l1.364 26.543c1.24 18.853 3.101 37.954 4.961 56.868.496 6.264 1.178 12.713 1.984 19.163 2.233 20.775 5.147 41.364 8.372 61.892.496 4.341 1.054 8.806 1.861 13.333 3.473 22.015 7.566 43.783 11.969 65.612.496 2.667.93 5.519 1.612 8.434 4.713 23.008 9.984 45.829 15.69 68.713.372 1.364.744 2.915.992 4.217 6.078 24 12.527 47.752 19.659 71.38l.186.868c57.364 193.488 147.225 377.736 259.783 550.388.248.434.558.744.868 1.364l41.736 61.643c1.24 1.984 2.791 4.031 4.279 6.078 13.023 18.667 26.357 37.147 40 55.566l10.419 13.953 35.473 46.512 20.403 25.488 27.597 33.922c12.217 14.884 24.62 29.457 37.271 44.031l12.217 14.202c150.698 172.651 322.109 329.054 501.954 466.791-.496-1.054-.868-2.419-1.24-3.349C526.356 5035.597 52.061 4413.83 39.286 3693.085l-1.86 35.287 1.24 32.186m7924.341 758.45l3.783-26.729c-4.651 35.783-10.853 71.07-17.674 106.109a11.25 11.25 0 0 0 .806 1.86c4.961-26.791 9.302-53.953 13.085-81.24"/><path d="M7388.929 5567.008c-57.798 54.884-118.45 107.225-181.829 156.899-.372 1.488-.744 3.039-1.178 4.465 2.667-2.171 5.643-4.465 8.496-6.636l12.093-9.364 54.388-44.465c.992-.682 1.798-1.488 2.667-2.233 35.597-29.891 70.078-60.899 103.814-92.713.62-1.922.992-3.969 1.55-5.953m503.814-748.465c24-70.512 43.287-143.318 57.178-218.295a11.25 11.25 0 0 1-.806-1.86c-14.76 74.047-34.233 146.109-58.295 215.69.744 1.551 1.178 3.101 1.922 4.465M3348.929 6423.442c-.248-.434-.496-.992-.744-1.426a6218.329 6218.329 0 0 1-307.473-64.186c.248.62.496 1.178.744 1.612 102.015 23.752 204.589 45.085 307.473 64m2906.481-183.008l82.171-30.698c-33.984 13.023-68.341 25.488-102.636 37.519l20.465-6.822m-2679.07 220.961l15.628 2.171-43.907-6.636 28.28 4.465M1381.55 5674.605c-20.093-12.775-39.938-26.294-59.907-39.38a5.78 5.78 0 0 1 .558 1.488l59.349 37.891"/><path d="M7387.379 5572.961c-.124.186-.124.496-.124.744 226.233-212.527 406.76-464.062 505.798-754.481-.186-.248-.186-.496-.31-.682-99.163 290.357-279.628 541.953-505.364 754.419m-3103.69 951.318c-.558 0-1.178 0-1.612-.124l-143.876-5.271c209.24 12.279 419.473 12.837 628.899 3.287-2.171.31-4.465.31-6.946.434-158.822 6.946-317.767 7.318-476.465 1.675m512.248-3.473c-6.077.124-12.341.62-18.666.992 94.264-4.465 188.155-11.225 281.861-20.465-2.109.31-4.217.434-6.326.682-85.519 8-171.163 14.326-256.868 18.791m319.07-24.93l88.372-8.682c-28.589 3.411-57.426 5.333-86.201 8.372-.682.062-1.364.31-2.17.31"/><path d="M5052.805 6502.016l6.326-.682 55.876-5.457c.806 0 1.488-.248 2.171-.31l-64.372 6.45m-292.651 20.589l6.946-.434a7613.292 7613.292 0 0 0 10.171-.372c6.326-.372 12.589-.868 18.667-.992l-35.783 1.798m-476.465 1.674c-.558 0-1.178 0-1.612-.124.434.124 1.054.124 1.612.124M7167.72 5757.83c13.023-9.612 25.488-19.411 37.953-29.147.248-.248.248-.248.248-.31l-38.202 29.457m782.326-1157.271c4.961-26.915 9.302-54.202 12.961-81.55-3.783 27.287-8.124 54.45-13.085 81.24.124.062.124.124.124.31M597.363 5010.729c150.946 173.209 322.481 330.109 502.14 467.349-.124-.186-.124-.434-.186-.558-179.845-137.736-351.256-294.14-501.954-466.791m6686.202 654.946c35.535-29.891 70.078-60.465 103.69-91.969 0-.248 0-.558.124-.744-33.736 31.814-68.217 62.822-103.814 92.713"/><path d="M7205.674 5728.682l8.744-6.946-8.496 6.636c0 .062 0 .062-.248.31m687.07-910.14c.124.186.124.434.31.682 24.124-70.636 43.101-143.504 56.992-218.667 0-.186 0-.248-.124-.31-13.891 74.978-33.178 147.784-57.178 218.296M2960.712 160.496c-44.527 27.225-85.209 59.721-122.357 96.806 88.868-45.209 180.341-85.829 274.605-120.186-50.791 6.388-101.519 13.892-152.248 23.38M1773.115 6527.443c-127.628-193.861-238.884-397.83-334.388-609.178-78.512-47.876-156.589-98.667-233.364-152.434 223.008 550.76 548.589 1059.225 982.202 1461.891 246.76 229.395 529.178 421.085 836.961 554.543 146.853 38.511 295.628 69.209 445.954 91.349-703.442-210.171-1292.713-731.597-1697.364-1346.171m-492.899-919.566l-87.442-60.713 70.636 49.736c5.519 3.783 11.287 7.256 16.806 10.977m367.008-4218.543c113.488-183.442 244.093-356.775 389.643-514.977-43.225-10.357-87.318-19.225-131.535-25.488-363.659 386.853-633.488 869.209-807.132 1370.543-45.333 131.287-84.279 264.93-117.768 399.814 52.775 0 105.55 1.054 158.326 2.915 106.17-434.852 273.798-853.023 508.465-1232.806M3511.1 7935.505c255.132 48.62 511.008 50.915 774.574 31.566-89.55 6.574-179.535 6.574-269.209 1.922-140.899-.372-281.984-7.132-422.45-22.574-27.783-3.163-55.256-7.38-82.915-10.915M2191.782 718.388c83.845-79.318 172.155-153.55 264.372-222.264 3.969-6.388 7.566-13.023 11.597-19.287 40.93-64.434 89.55-125.457 145.426-178.295-201.736 109.147-386.419 243.659-553.55 398.015 33.178 3.721 65.985 8.31 98.046 14.512 11.411 2.17 22.76 4.899 34.109 7.318M951.1 4934.574c38.698 181.767 88 362.109 146.977 539.597 55.132 42.171 110.946 82.791 167.504 121.612 18.046 12.403 36.589 24.062 54.884 36.155-200.682-535.194-306.233-1108.217-320.806-1678.202-9.24-365.519 19.597-734.325 88.62-1094.884-53.643-2.046-107.163-3.101-160.744-3.535-133.829 684.031-121.55 1399.194 23.566 2079.256M3415.162 49.116c102.636-22.264 207.69-38.14 314.853-45.767-155.411 11.411-307.225 30.202-456.124 59.907 33.054-4.403 66.108-8.868 99.783-11.721 13.953-1.24 27.659-1.364 41.488-2.419"/><path d="M2960.712 160.496c50.729-9.488 101.457-16.992 152.248-23.38 98.233-35.845 198.822-65.55 302.202-88-13.829 1.054-27.535 1.178-41.488 2.419-33.674 2.852-66.729 7.317-99.783 11.72-82.108 16.31-163.101 36.217-243.473 60.589-24.124 10.728-47.38 22.76-69.705 36.651m-504.558 335.628c120.93-90.233 248.372-170.481 382.202-238.822 37.147-37.085 77.829-69.581 122.357-96.806-31.504 5.768-62.946 13.147-94.574 20.279-64.31 24.868-128.186 52.279-191.318 84.093-20.961 10.605-41.054 22.512-61.643 33.675-55.876 52.837-104.496 113.86-145.426 178.295-4.031 6.264-7.628 12.899-11.597 19.287"/><path d="M2866.139 180.775c31.628-7.132 63.07-14.512 94.574-20.279 22.326-13.892 45.581-25.923 69.705-36.651-55.008 16.62-109.954 35.907-164.279 56.93M1280.216 5607.876c-5.519-3.721-11.287-7.194-16.806-10.977l-70.636-49.736c-4.155-3.163-8.62-5.953-12.775-8.868l-80.496-60.217c32.248 96.93 67.349 193.054 105.86 287.752 76.775 53.767 154.853 104.558 233.364 152.434-41.86-92.465-80.744-186.48-116.527-281.55l-41.985-28.837"/><path d="M1192.774 5547.163c28.837 20.713 58.17 40.806 87.442 60.713 13.705 9.364 27.721 18.171 41.426 27.349-.248-1.116-.868-2.171-1.178-3.287l-54.884-36.155c-56.558-38.822-112.372-79.442-167.504-121.613.372.93.744 2.295 1.24 3.349 30.822 23.814 62.202 47.132 93.457 69.643"/><path d="M1321.643 5635.225l-41.426-27.349 41.985 28.837a5.77 5.77 0 0 0-.558-1.488m-128.868-88.062c-31.256-22.512-62.636-45.829-93.457-69.643.062.124.062.372.186.558l80.496 60.217c4.155 2.915 8.62 5.706 12.775 8.868M2262.79 945.178c18.915-65.116 40.496-129.302 65.55-192a1827.53 1827.53 0 0 0-136.558-34.791c-53.271 50.295-105.178 101.891-154.915 155.969 64.992 15.752 127.938 35.287 185.923 55.876 13.519 4.651 26.667 10.047 40 14.946m4347.721 6042.729c63.07-52.775 125.023-107.101 184.682-164.155.93-.744 1.55-1.488 2.357-2.295 29.829-49.922 51.845-104.558 66.853-161.674-64.992 86.45-134.946 169.922-210.543 249.612-12.279 27.163-26.605 53.706-43.349 78.512m262.326-855.07c-49.55 29.519-99.597 57.736-150.264 84.589-13.147 6.884-26.667 13.085-40 19.907 31.442 160.372 48.124 332.589 24.124 488.682 67.411-90.108 129.426-183.938 186.233-280.682 3.411-103.876-4.155-208.248-20.093-312.496m-227.225-57.488c0 .124.062.186.124.434 66.109-32.558 131.597-67.101 196.217-104.062-.062-.124-.062-.248-.062-.248-64.558 36.899-130.046 71.194-196.279 103.876m149.581 750.015l-64.496 60.899 62.078-56.93c.93-1.302 1.612-2.543 2.419-3.969M2059.627 696.558c-163.163-18.047-335.69-1.55-462.822 104.558l-180.527 150.45C1550.48 839.69 1729.394 824 1905.332 848.868c49.426-52.899 101.271-103.256 154.295-152.31m943.938 640.496c520.496 343.938 990.326 766.636 1422.139 1216.992 245.147 255.318 480.558 522.295 703.256 799.628l384.434 112.062c-85.643-112.682-173.023-223.876-261.953-333.085-574.388-705.984-1228.713-1371.845-1979.535-1888-228.899-157.209-476.589-311.814-738.418-419.101-22.202 73.054-40.558 143.938-55.814 210.233 182.636 85.954 357.829 190.078 525.892 301.271"/><path d="M6088.092 4762.791c213.767 379.349 405.271 777.922 525.705 1195.907 10.543 36.465 21.147 75.163 31.504 115.225 66.233-32.558 131.783-67.101 196.217-104.062-51.039-222.016-133.271-440.124-218.605-643.969-226.853-539.721-528.248-1050.543-868.465-1532.217l-376.062-116.589c259.101 347.535 498.109 709.643 709.705 1085.705m1279.38-331.287c53.891 28.279 107.039 58.171 159.38 89.302l.496-38.698c-.62-79.132-4.093-158.388-9.116-237.271-55.752-31.69-112.31-62.202-170.047-90.977 9.178 92.217 15.69 184.744 19.287 277.643M2383.782 2752.31l-257.674-36.217 17.798 243.101 260.093 38.388-20.217-245.271m4899.783 2913.364c-.868.744-1.674 1.55-2.667 2.233-17.922 15.132-36.093 29.891-54.388 44.465l-12.093 9.364c-2.853 2.357-5.829 4.651-8.744 6.946-24.186 79.752-51.163 159.07-81.302 237.209 65.55-48.682 128-100.837 188.465-155.101 27.659-78.202 52.341-157.271 74.419-237.085-33.612 31.504-68.155 62.078-103.69 91.969m-4241.86 694.202c36.031 75.225 73.612 149.581 112.248 223.442 102.388 21.643 205.333 40.992 308.713 57.488-39.132-71.566-77.085-143.876-113.488-216.992a6377.76 6377.76 0 0 1-307.473-63.938M1088.278 2858.853c15.008-79.194 31.442-158.326 50.481-236.713-52.775-1.86-105.55-2.915-158.326-2.915-19.535 78.326-37.271 156.837-52.899 236.093l160.744 3.535m5804.651 3586.481c-56.806 96.744-118.822 190.574-186.232 280.682-9.86 64.62-26.915 126.45-52.837 183.38 75.597-79.69 145.55-163.163 210.543-249.612 15.256-59.163 24.248-120.496 27.597-181.644.558-10.977.558-21.953.93-32.806"/><path d="M5378.387 3677.085l376.062 116.589c-78.326-110.946-158.946-220.279-241.054-327.938l-384.434-112.062c85.271 106.109 168.124 214.264 249.426 323.411M2533.488 825.55c-67.535-27.597-136-51.783-205.147-72.372-25.054 62.698-46.636 126.884-65.55 192 72.868 26.915 144.372 57.426 214.884 90.604 15.256-66.294 33.612-137.178 55.814-210.232m4149.085 5411.783l40-19.907c50.667-26.853 100.713-55.07 150.264-84.589-8.248-53.829-18.481-107.535-30.884-161.116-64.62 36.961-130.109 71.504-196.217 104.062 13.333 51.597 25.984 105.798 36.837 161.55"/><path d="M6645.612 6075.349c66.233-32.682 131.721-66.977 196.279-103.938a9.22 9.22 0 0 0-.372-1.55c-64.434 36.961-129.984 71.504-196.217 104.062.062.434.186.93.31 1.426M2191.782 718.388l-34.108-7.318c-32.062-6.202-64.868-10.791-98.046-14.512-53.023 49.054-104.868 99.411-154.295 152.31 44.217 6.264 88.31 15.132 131.535 25.489 49.736-54.077 101.643-105.674 154.915-155.969m853.023 7072.31c-40.496-10.419-81.054-21.395-121.24-33.178l-29.395-8.992c-41.488-12.465-82.791-25.364-123.721-39.132l-63.752-22.078-86.512-31.504-99.535-39.318-48.744-20.092c-44.093-18.791-87.938-38.139-131.349-58.418l-15.504-7.256c-62.45-29.209-123.783-60.713-184.62-92.961l-5.085-2.729c-105.985-56.558-209.674-117.147-310.139-183.256-74.481-48.868-146.605-100.837-217.364-154.667l-17.673-13.209c-32.124-24.558-63.38-49.86-94.698-75.349l-50.915-41.612-52.775-45.767-86.202-76.961c-3.101-2.791-6.078-5.767-8.992-8.62-72.186-66.977-142.45-136-209.426-208.31-98.171-105.86-189.271-217.613-274.977-333.333-3.349-4.713-6.946-9.612-10.481-14.264-46.698-63.566-92.217-128-135.07-194.171l-14.14-22.822-67.721-109.023c-16.372-27.473-31.938-55.38-47.69-83.287L508 5818.854c-24.248-44.589-47.876-89.612-70.388-135.194-.434-.992-.992-2.171-1.55-3.163-29.147-58.853-56.558-118.822-83.101-179.287-.248-.62-.558-1.364-.806-2.109-44.651-101.891-85.333-205.519-120.992-311.132-27.721-82.977-52.031-166.946-74.295-251.225l-9.984-37.705c-7.938-30.636-14.946-61.829-22.016-92.837l-19.039-86.946c-3.101-14.76-5.829-29.829-8.744-45.023-9.488-49.427-17.612-99.163-25.116-148.9-13.458-87.008-25.489-174.264-32.931-262.14-3.783-46.45-5.458-92.837-7.628-139.349-5.581-36.341-10.543-72.806-13.644-109.891-16.248-183.256 8.124-361.984 31.752-542.512-5.147 47.008-8.248 93.52-9.736 139.845 2.046-24.186 5.581-48.248 8.186-72.496.062-.186.062-.434.062-.806 7.504-72 17.178-144 28.837-215.628 11.597-71.566 25.24-142.76 40.744-213.705l14.139-63.876c-.124.682-.558 1.24-.558 1.861l4.651-19.907 6.635-27.721 6.946-29.023 16.806-69.519c-144.248 500.651-194.667 1021.705-133.023 1544 103.628 875.162 507.039 1703.007 1126.698 2329.116 627.659 633.922 1466.791 1045.891 2351.194 1161.922-76.713-14.884-153.426-33.178-230.326-56.93-80.31-25.116-158.698-55.194-235.969-87.876"/><path d="M131.193 3046.636c0-.62.434-1.178.558-1.86 1.488-6.015 2.791-11.907 4.093-18.046l-4.651 19.907m7599.193 2379.411c-4.093 11.039-9.116 21.705-13.395 32.682l-18.171 45.829 31.566-78.512M214.604 2747.535c7.876-24.992 17.302-49.55 25.798-74.667.744-2.046 1.364-4.217 1.923-6.202l-38.015 109.147c.558-.868.93-1.674 1.488-2.543 2.791-8.62 5.892-17.116 8.806-25.736M36.929 3631.566c-.31 10.604-.186 20.961-.248 31.504 0-.31 0-.93.062-1.116l.186-30.388m6789.333 3164.527c-9.922 9.612-19.101 19.907-29.209 29.519-1.364 1.24-2.853 2.419-4.279 3.721-26.667 42.729-58.729 82.294-98.977 115.907l-177.984 148.031c34.171-28.465 62.387-60.651 86.76-95.132l-28.031 23.318c-23.628 19.349-47.752 38.078-71.566 56.806l-69.891 53.705c-13.891 10.419-28.217 20.465-42.357 30.698-34.357 24.992-68.651 49.488-103.752 73.054-3.039 2.171-6.264 4.279-9.302 6.14-77.457 52.279-156.341 102.264-237.333 148.837-123.101 70.574-250.233 133.271-379.721 190.016l-41.24 17.736-76.217 31.628c-43.535 17.488-87.194 34.543-131.411 50.356-12.155 4.589-24.434 8.434-36.652 12.775l-110.14 37.147c-33.86 10.729-67.907 20.837-102.202 30.574l-46.574 13.519c-154.543 43.101-311.566 76.279-470.512 100.341 77.209 17.116 157.023 19.907 238.14 1.861 440.434-95.69 864.868-264.62 1250.047-502.946 673.613-416.806 1195.721-1028.031 1513.86-1747.907-3.907 8.434-8.248 16.806-12.341 25.302-19.287 42.729-39.69 84.713-60.837 126.512l-25.984 51.535c-27.969 53.333-56.992 105.984-87.38 157.891l-17.055 28.279c-28.465 47.628-58.047 94.636-88.682 140.961-15.194 23.318-31.256 45.891-47.008 68.713l-60.217 84.837-58.109 77.643-54.512 68.527-67.225 81.984c-11.535 13.395-23.628 26.233-35.225 39.442-24.434 27.845-50.233 53.953-75.225 80.806-5.519 6.14-10.977 11.845-16.558 17.798-21.209 22.512-41.426 45.829-63.38 67.907l-51.721 52.155M4155.317 7917.581c-6.45.248-12.775.744-19.225.744-37.209.868-74.357.496-111.628.372l-72.372-.868c-21.706-.434-43.287-1.488-65.054-2.295l-120.496-6.512c-7.938-.434-15.752-1.302-23.566-1.86-83.349-6.388-166.698-14.76-249.612-26.481 110.326 31.752 223.256 56.558 338.977 72.062 61.147 8.062 122.605 13.085 184.124 16.248 156.341.496 312.434-8.186 467.473-26.047-53.519-4.279-106.171-15.938-157.271-33.302-57.178 3.907-114.109 6.574-171.349 7.938m3495.566-2298.977l26.915-61.644c-5.457 12.899-11.659 25.426-17.116 38.14-3.473 7.752-6.326 15.752-9.798 23.504"/><path d="M160.65 2931.163l33.922-118.574c3.969-12.899 7.194-26.295 11.225-39.318-.558.868-.93 1.674-1.488 2.543-13.333 41.364-26.109 82.915-38.077 124.651l-16.806 69.519c3.473-12.961 7.69-25.736 11.225-38.822m-18.171 67.845l-6.636 27.721c.992-3.535 2.108-7.38 2.853-11.039 1.364-5.581 2.419-11.039 3.783-16.682m4503.194 4875.783c-66.605 10.233-133.333 19.039-200.372 25.798-39.504 3.845-79.132 6.387-118.636 9.054 51.101 17.364 103.752 29.023 157.271 33.302 132.093-15.256 263.256-36.589 392.992-64.558 2.295-.558 4.651-1.054 6.884-1.736-81.116 18.047-160.93 15.256-238.14-1.86"/><path d="M4885.363 7876.527l-1.55.124-6.884 1.736 8.434-1.86M36.681 3663.07l.248-31.504c.496-16 1.612-31.876 2.605-47.938l1.674-31.566c2.17-26.791 4.837-53.581 8.31-80.62-23.628 180.527-48 359.256-31.752 542.512 3.101 37.085 8.062 73.55 13.644 109.891-7.442-153.923-5.768-307.535 5.271-460.775"/><path d="M39.534 3583.628l-2.605 47.938c-.31 10.17-.186 20.279-.186 30.387l3.039-50.667c1.488-46.326 4.589-92.837 9.737-139.845-3.473 27.039-6.14 53.829-8.31 80.62-.806 10.605-1.116 21.085-1.675 31.566m3453.829 4297.055c-4.837-.682-9.736-1.054-14.698-1.736-134.202-19.411-266.791-46.388-397.829-78.946-.744-.248-1.674-.558-2.419-.682l-33.612-8.62c77.271 32.682 155.659 62.76 235.969 87.876 76.899 23.752 153.612 42.046 230.326 56.93l82.915 10.915c140.465 15.442 281.55 22.202 422.45 22.574-61.519-3.163-122.977-8.186-184.124-16.248-115.721-15.504-228.651-40.31-338.977-72.062m3022.45-787.411l177.984-148.031c40.248-33.612 72.31-73.178 98.977-115.907-20.217 19.597-41.364 38.078-62.078 56.93l-22.574 20.775c-30.326 27.163-61.271 53.705-92.403 79.752-4.279 3.845-8.558 7.628-13.147 11.349-24.372 34.481-52.589 66.667-86.76 95.132m310.45-297.178c17.55-17.178 34.543-34.791 51.721-52.155 21.953-22.078 42.17-45.395 63.38-67.907-46.636 49.55-94.325 98.233-143.814 145.426-.806 1.426-1.426 2.667-2.356 3.907l31.07-29.271m242.109-258.109c22.884-26.915 45.023-54.45 67.225-81.984l54.512-68.527 58.109-77.643c20.589-28.031 40.496-56.248 60.217-84.837l47.008-68.713c30.636-46.326 60.217-93.333 88.682-140.961l17.054-28.279c30.388-51.907 59.411-104.558 87.38-157.891l25.984-51.535c21.147-41.798 41.55-83.783 60.837-126.511l25.302-56c19.721-45.023 38.388-90.543 56.31-136.372l25.55-64.992c-177.116 467.411-444.775 898.481-784.62 1264.496l75.225-80.806 35.225-39.442m-127.008 138.047l16.558-17.798c-5.519 6.14-10.977 11.845-16.558 17.798M207.41 2770.791c1.178-1.798 2.108-3.411 3.349-4.961l29.643-92.961-25.798 74.667c-2.667 7.814-4.837 15.504-7.194 23.256m34.915-104.124l36.031-102.884c-12.527 34.109-24.496 68.465-36.031 102.884"/><path d="M278.356 2563.783c-12.775 33.984-23.876 68.465-36.031 102.884-.558 1.985-1.178 4.155-1.923 6.202l37.954-109.085M36.495 3709.892l.806 20.837c.124-.806.124-1.612.124-2.357-.186-6.14-.744-12.403-.93-18.481m4284.961 4197.83c-284.403 19.163-569.86 7.07-850.977-34.109 4.589 1.24 9.178 2.915 13.829 4.217 85.892 12.341 172.155 22.512 258.667 29.333l23.566 1.86c40.124 2.853 80.31 4.713 120.496 6.512l65.054 2.295c24.062.744 48.124.744 72.372.868l111.628-.372c6.449 0 12.775-.496 19.225-.744 56.806-1.55 113.736-4.341 170.542-8.31-1.613-.372-3.039-1.116-4.403-1.551M39.286 3693.085c14.201-223.628 47.752-446.326 99.597-665.302-2.295 5.085-4.837 9.922-6.326 15.38l-14.946 65.488c-15.442 70.946-29.085 142.202-40.744 213.705a3961.1 3961.1 0 0 0-28.837 215.628c0 .372 0 .62-.062.806l-9.116 111.318.434 42.977m2985.241 4089.178c-424-111.752-830.45-290.667-1197.829-532.279-741.829-488-1309.581-1221.271-1592.93-2062.884-112.249-332.837-176.931-677.147-196.032-1023.256-1.86-9.798-3.225-19.349-4.589-29.209 6.45 130.791 19.473 261.147 38.822 390.698l25.116 148.899 8.744 45.023c5.891 29.147 12.341 58.109 19.039 86.946l22.016 92.837 9.984 37.705c51.163 192.186 116.341 380.217 195.287 562.357.248.744.558 1.488.806 2.109 26.295 60.465 53.954 120.248 83.101 179.287.558.992 1.116 2.171 1.55 3.163 22.512 45.581 46.14 90.605 70.388 135.194 9.426 17.426 19.411 34.481 29.085 51.535l47.69 83.287c21.83 36.837 44.651 72.93 67.721 109.023l14.139 22.822c43.101 65.984 88.248 130.729 135.07 194.171 3.535 4.651 7.132 9.55 10.481 14.264 144.806 194.543 306.791 376.124 484.403 541.643 2.915 2.853 5.891 5.829 8.992 8.62 28.217 26.171 57.116 51.721 86.202 76.961l52.775 45.767 50.915 41.612 94.698 75.349 17.675 13.21c166.885 126.078 343.443 238.884 527.505 337.923l5.085 2.729c60.837 32.558 122.295 63.566 184.62 92.961l15.504 7.256c43.411 20.279 87.256 39.628 131.349 58.418l48.744 20.093 99.535 39.318c28.651 11.039 57.55 21.023 86.512 31.504l63.752 22.078c40.93 13.767 82.233 26.667 123.721 39.132l29.395 8.992c39.132 11.225 78.512 21.643 117.892 31.69l-16.93-6.946"/><path d="M352.96 5501.209l-.806-2.109.806 2.109m1787.473 1936.558l-5.085-2.729 5.085 2.729m3560 122.047l5.395-2.915c-338.109 154.047-697.798 261.395-1066.357 316.589 1.612.372 3.163.62 4.713.992a4036.64 4036.64 0 0 0 472-100.031c15.566-4.093 30.946-8.992 46.574-13.519l102.202-30.574c37.023-11.659 73.55-24.372 110.14-37.147l36.651-12.775c44.217-15.69 87.814-32.992 131.411-50.357l76.217-31.628c13.829-5.705 27.411-11.845 41.24-17.736 214.946-94.574 421.767-207.752 617.054-338.853 3.039-1.86 6.264-3.969 9.302-6.14 35.101-23.566 69.395-48.062 103.752-73.054l42.357-30.698 69.891-53.705 71.566-56.806 28.837-24.31c2.295-3.225 5.023-6.078 7.132-9.24-272.062 228.217-574.574 417.674-896.558 565.147a1373.087 1373.087 0 0 0-13.52 6.76"/><path d="M5713.953 7553.054l-8.124 3.845c-1.922.868-3.659 1.984-5.395 2.915a1373.087 1373.087 0 0 1 13.519-6.76M194.573 2812.589c-11.969 39.442-23.256 79.008-33.922 118.573l-21.953 84.527c-2.357 9.178-4.031 18.295-6.14 27.473 1.488-5.457 4.031-10.295 6.326-15.38 20.775-88 44.899-175.256 71.876-261.953-1.24 1.55-2.171 3.163-3.349 4.961l-12.837 41.798m4126.884 5095.132c1.364.434 2.791 1.178 4.403 1.55 106.543-7.504 212.651-18.915 318.326-34.791-1.55-.372-3.101-.62-4.713-.992-64.682 9.674-129.364 18.233-194.481 24.744-41.178 4.093-82.419 6.76-123.535 9.488M37.301 3730.729c-.124-7.07-.62-13.892-.806-20.837-.124-10.481.124-20.961.124-31.504-10.108 151.876-11.039 304.248-3.473 456.248 1.364 9.86 2.729 19.411 4.589 29.209-8.186-144.186-8.248-288.93-.434-433.116"/><path d="M37.426 3728.372l1.86-35.287-.434-42.977-2.233 27.969-.124 31.814c.186 6.077.744 12.341.93 18.481"/><path d="M36.619 3678.078v.31l-.124 31.504c-.124-10.605.124-21.209.124-31.814m3433.86 4195.535c-150.326-22.14-299.101-52.837-445.954-91.349 5.581 2.419 11.225 4.589 16.93 6.946l36.961 10.109c.744.124 1.674.434 2.419.682 133.085 33.054 267.845 58.357 403.473 77.829-4.651-1.302-9.24-2.977-13.829-4.217m3140.031-885.705c-2.109 3.163-4.837 6.016-7.132 9.24 4.341-3.349 8.434-6.946 12.341-10.357 31.132-26.047 62.078-52.589 92.403-79.752l22.574-20.775c21.767-19.907 43.101-40.496 64.496-60.899.93-1.24 1.55-2.481 2.357-3.907-.806.806-1.426 1.55-2.357 2.295-59.659 57.054-121.612 111.38-184.682 164.155M76.867 3322.357c11.659-71.504 25.302-142.76 40.744-213.705-15.504 70.946-29.147 142.14-40.744 213.705M48.03 3537.985c7.628-72 17.24-144 28.837-215.628-11.659 71.628-21.333 143.628-28.837 215.628m764.155 2755.969c85.706 115.721 176.806 227.473 274.977 333.333 66.977 72.31 137.24 141.333 209.426 208.31-177.612-165.519-339.597-347.101-484.403-541.643m-10.481-14.264c-46.822-63.442-91.969-128.186-135.07-194.171 42.853 66.171 88.372 130.605 135.07 194.171m10.481 14.264c-3.349-4.713-6.946-9.612-10.481-14.264 3.535 4.651 7.132 9.55 10.481 14.264M31.41 4123.845l7.628 139.349c7.442 87.876 19.473 175.132 32.93 262.14-19.349-129.55-32.372-259.907-38.822-390.698-.682-3.535-1.302-7.132-1.736-10.791m65.674 550.388c-9.612-49.364-17.24-99.163-25.116-148.899 7.504 49.736 15.628 99.473 25.116 148.899M36.681 3663.07l-.062 11.411.124-12.527c-.062.186-.062.806-.062 1.116m11.287-124.279l-8.186 72.496-.93 38.822 9.116-111.318m7629.83 2018.17c7.318-17.364 14.078-34.977 21.023-52.403l18.171-45.829c-17.923 45.829-36.589 91.349-56.31 136.372 5.457-12.713 11.659-25.24 17.116-38.14M214.604 2747.535l-8.806 25.736c.62-.93 1.054-1.798 1.613-2.481 2.357-7.752 4.527-15.442 7.194-23.256m2708.961 5009.985c40.186 11.783 80.744 22.76 121.24 33.178-1.24-.496-2.357-.93-3.349-1.488l-117.892-31.69m3679.008-759.38a6.26 6.26 0 0 0 .806-.992l-28.837 24.31 28.031-23.318m-3109.209 882.543c82.915 11.721 166.264 20.093 249.612 26.481-86.512-6.822-172.775-16.992-258.667-29.333 2.915.992 6.077 1.922 9.054 2.853m2126.016-282.233c-25.24 10.915-50.667 21.395-76.217 31.628l76.217-31.628m420.961-207.752c80.992-46.574 159.876-96.558 237.333-148.837-195.287 131.101-402.109 244.279-617.054 338.853 129.488-56.744 256.62-119.442 379.721-190.016m-379.721 190.016l-41.24 17.736c13.829-5.705 27.411-11.845 41.24-17.736m-117.457 49.364l-131.411 50.357c44.217-15.814 87.876-32.868 131.411-50.357M160.65 2931.163c-3.535 13.085-7.752 25.86-11.225 38.822-2.481 9.612-4.527 19.287-6.946 29.023l-3.783 16.682c6.884-28.279 14.45-56.496 21.954-84.527"/><path d="M205.798 2773.271c-4.031 13.023-7.256 26.419-11.225 39.318l12.837-41.798c-.558.682-.992 1.55-1.613 2.481M36.619 3678.388v-3.907l.062-11.411c-11.039 153.24-12.713 306.853-5.271 460.775.434 3.659 1.054 7.256 1.736 10.791-7.566-152-6.636-304.372 3.473-456.248"/><path d="M36.619 3674.481v3.597l2.233-27.969.93-38.822c-1.488 16.744-1.798 33.86-3.039 50.667l-.124 12.527m0 0v3.907-3.907m3008.186 4116.217l33.612 8.62c-12.341-3.101-24.744-6.822-36.961-10.108.992.558 2.108.992 3.349 1.488m36.031 9.302c131.039 32.558 263.628 59.535 397.829 78.946 4.961.682 9.86 1.054 14.698 1.736l-9.054-2.853c-135.628-19.473-270.388-44.775-403.473-77.829m3534.884-813.209c-3.907 3.411-8 7.008-12.341 10.357-.248.372-.496.682-.806.992 4.589-3.721 8.868-7.504 13.147-11.349"/></g><g fill="#00679b"><path d="M3120.96 7027.473l-23.256-14.326c7.69 4.961 15.566 9.488 23.256 14.326m-129.674-84.403l-37.023-24.62 37.023 24.62M1298.449 4440.186c.31-.682.434-1.178.496-1.86-.062.682-.186 1.178-.496 1.86m3332.279 763.535l-77.395 29.271 77.395-29.271M1896.092 2706.232l-19.225 36.713c.248.372.372.682.434.93l18.791-37.643m4627.225 1524.9c-59.039 39.504-118.636 77.953-178.667 115.721l-85.271 53.333-20.589 12.775c-5.891 3.659-12.031 6.946-18.109 10.605-78.016 47.504-157.085 93.705-236.589 138.791l-72.061 40.744-79.008 42.543-159.318 85.767c292.279-150.45 577.426-316.031 849.612-500.279M3259.628 7111.07l-16.682-9.426c5.519 3.225 11.163 6.202 16.682 9.426M1249.27 4776.558l11.845-92.961-11.845 92.961m1618.853 2080.496l-54.326-39.008 54.326 39.008M1271.162 4608.186l10.046-62.574-10.046 62.574m59.287 508.775l-45.705-81.922 45.705 81.922m1419.659 1652.217l-73.178-56.434 73.178 56.434m-113.86-89.922l-91.969-76.217 91.969 76.217M1431.472 5289.985l-64.992-108.589 64.992 108.589m448.558 1990.202c.868.93 1.675 1.55 2.605 2.543 372.279 113.736 790.512 76.465 1188.031-33.674-.31-.186-.496-.248-.744-.31-394.729 108.093-816.124 145.24-1189.891 31.442M5108.62 218.233c-272.558-14.45-547.721 36.341-813.209 131.163 265.364-94.574 540.775-145.302 813.209-131.163M2668.185 1545.116a8.24 8.24 0 0 0-1.178 1.488 8.24 8.24 0 0 1 1.178-1.488M5593.457 319.752l27.597 10.233c-9.24-3.721-18.481-6.76-27.597-10.233m-84.775-29.457l39.194 12.465c-13.085-4.527-26.233-8.372-39.194-12.465M7251.999 3648.62l-47.442 45.643c-50.915 48.31-102.636 95.566-156.031 141.333 114.605-97.178 224.62-200.434 325.643-311.194-31.938 34.295-63.504 66.667-93.147 96.372-9.364 9.55-19.349 18.481-29.023 27.845M5427.069 266.791l47.566 12.713c-15.752-4.713-31.814-8.62-47.566-12.713m1240.124 754.853c3.349 3.411 6.698 7.008 10.295 10.295-3.597-3.287-6.946-6.884-10.295-10.295m-547.907 6339.535l17.364-9.426c-.559.124-1.055.248-1.985.372-5.085 2.976-10.047 6.263-15.38 9.054m-2313.922-400.434c.31-.248.93-.496 1.365-.806l-78.45 38.636 77.085-37.829m-122.667 59.473l-95.194 43.163c32.124-14.016 63.814-28.527 95.194-43.163m754.295 545.054c516.155 102.574 1045.395 80.062 1521.116-125.643-467.411 201.488-1002.977 226.605-1521.116 125.643m909.582-7316.899l54.822 11.659c-18.419-4.279-36.589-8-54.822-11.659m-515.1 6035.969c.062.248.186.248.31.372 314.543-258.481 604.713-548.093 867.845-856.992-63.938 74.729-129.178 148.279-195.845 219.845-208.744 225.55-433.488 439.938-672.31 636.775m2144.31-3165.891c9.55-35.349 18.481-71.318 27.287-107.597 0-.062-.186-.062-.31-.248l-32.124 125.705c1.612-5.954 3.473-11.845 5.147-17.86M1235.255 4939.659v.124l9.86 18.977-9.861-19.101m1147.844-3031.008h-.682c-178.791 248.124-338.419 510.821-478.574 782.449 140.217-271.07 300.093-534.015 479.256-782.45M1243.317 4834.977l-9.426 97.922c.062.124.186.248.31.496l9.116-98.419m3268.527 1695.814l21.085-15.132s-.186-.062-.372-.186l-20.713 15.318m2076.899-2419.039c123.845-242.977 229.891-494.202 314.357-751.876-85.024 257.674-191.008 508.775-314.357 751.876M1256.278 5870.264v.124c1.798.124 3.659.248 5.643.496-1.985-.248-3.845-.496-5.643-.62m5300.465-1696.93l-27.969 52.961c.186-.186.434-.31.558-.496 9.488-17.24 18.233-34.853 27.411-52.465m375.194-902.946l7.938-26.729-7.938 26.729M1233.829 4936.744c0-.124-.062-.124-.186-.248l-.062.124c.062.124.186.186.248.372v-.248m609.551 938.047c145.86-8.248 291.473-22.76 436.341-41.86l-96.186 10.977-58.171 6.574-88.062 8.558c-56.496 5.209-113.178 9.674-169.923 13.023-8.249.558-16.373 1.488-24.745 1.798.372.372.558.62.744.93m-624.992-485.457l1.364 48.434-.496-47.38c-.248-.372-.682-.744-.868-1.054m2314.295 181.953l-167.938 45.395-69.147 18.171-32.806 8.806c92.031-22.698 183.628-47.442 275.039-72.93-.124-.248-.496-.496-.62-.744-1.612.372-3.039.744-4.527 1.302m-1692.217 302.822c.248.248.434.682.682.806h.062c-.124-.248-.372-.558-.62-.806h-.124m-586.233-4.031h-.248v.062h.31l-.062-.062m-4.031-32.062l3.597 30.698h.186l-3.783-30.698m412.093-2625.054l8.682-21.209-8.682 21.209m-209.861 2111.938c30.636 49.488 61.954 98.48 94.015 146.604 91.721 138.17 189.891 272.496 293.891 402.356l.062-.062c-139.659-174.574-269.581-357.953-387.969-548.899m673.984 877.954h-.372c126.884 135.194 260.155 263.814 400.124 384.434-139.969-120.744-273.116-249.612-399.752-384.434M713.766 2638.883c-8 112.124-10.667 224.868-7.628 337.613 1.116 36.341 3.225 72.558 5.271 108.837-7.938-149.085-7.814-298.357 2.356-446.45M1002.2 4417.488l15.132 39.07c.062-.248.062-.372.062-.62l-15.194-38.45M3940.495 5450.79c139.845-44.961 278.822-93.085 416.868-143.628-9.86 3.659-19.907 6.76-29.829 10.357-128.31 46.636-257.674 90.667-387.721 132.465.124.248.434.682.682.806m144.806-5016.93l32.806-14.264-32.806 14.264M885.363 4070.511l-39.318-139.907c12.217 46.884 25.55 93.396 39.318 139.907m-43.907-158.325c-12.403-48-24.186-96.248-35.039-144.496 10.853 48.248 22.636 96.434 35.039 144.496m382.946 1651.969l1.364 17.364-1.736-27.597c.248 3.349.248 6.822.372 10.233M933.239 4222.76l-41.24-128.806 41.24 128.806m51.907 148.093l-40.93-114.481 40.93 114.481M767.038 3567.38l-19.721-120.93c5.83 40.372 12.713 80.62 19.721 120.93m34.728 177.985l-28.279-139.597c8.62 46.698 18.357 93.209 28.279 139.597m717.892-2877.085c7.938-6.636 15.69-13.519 23.566-20.279l-23.566 20.279m-801.302 1721.24l8.992-97.736c-3.783 32.434-6.264 65.054-8.992 97.736m19.907 787.845l-11.039-90.171c3.163 30.015 7.132 60.031 11.039 90.171m5232.496 4057.24c40.682-17.798 80.372-37.457 119.814-58.047-41.798 21.829-84.155 42.543-127.318 61.085l7.503-3.039M721.27 3221.457l-8.062-99.721c2.047 33.302 5.147 66.543 8.062 99.721m2990.946 4116.713l-30.077-12.589 30.078 12.589m-2076.341-158.325c-18.605-10.047-36.899-20.217-55.07-31.07 18.17 10.853 36.465 21.023 55.07 31.07m-145.673-91.101l-29.085-20.961c9.55 7.256 19.287 14.015 29.085 20.961m73.674 49.426l-42.729-27.225c14.078 9.426 28.403 18.295 42.729 27.225m611.721 381.706l9.86 6.14c-3.225-1.922-6.574-4.031-9.86-6.14m543.442-6033.984c14.512-16.558 29.395-32.558 44.093-48.744l-44.093 48.744M1445.55 6609.24c-.124-.248-.248-.558-.248-.558s.124.31.248.558m-97.054-285.085l-5.147-18.853 5.147 18.853M321.023 5476.651c-5.581-8.806-10.791-17.922-15.752-27.163 4.961 9.426 10.295 18.233 15.752 27.163m918.016 265.798l-4.279-41.674 4.279 41.674m-906.233-247.566c138.543 208.806 412.403 302.202 675.349 345.923-.062-.682-.124-1.302-.248-1.984-182.45-30.512-368.186-85.395-512.62-186.047-11.411-7.752-22.76-15.628-33.674-24.186l-7.07-5.457c-46.76-36.837-88.248-79.194-121.736-128.248m1060.651 973.767c-1.178-3.039-2.109-6.016-3.101-8.93.992 2.915 1.922 5.891 3.101 8.93m4381.581-1130.419l-23.442 28.341 23.442-28.341m584.248 1780.093c21.395-.434 42.046-2.543 61.395-5.643-19.349 3.101-40 5.147-61.395 5.643M3336.65 895.938c-7.256 5.705-14.078 11.721-21.023 17.426l94.326-74.17-73.302 56.744m4437.953 1784.558c-.124-1.488-.434-2.791-.682-4.155.248 1.365.558 2.667.682 4.155M5110.48 218.419c23.814 1.178 47.566 3.039 71.38 5.147-23.814-2.171-47.566-3.969-71.38-5.147M2833.022 1360.682l36.341-37.581-36.341 37.581m1321.736-956.899c17.426-7.38 35.039-14.264 52.713-21.333l-52.713 21.333M3462.108 800.31c.372-.186.682-.558 1.116-.868-.435.309-.745.681-1.117.867m3025.427 6293.52c12.713-4.961 25.426-10.047 36.775-16.744-11.349 6.698-24.186 11.783-36.775 16.744M5267.131 234.357c20.341 2.977 40.744 6.326 61.085 10.047-20.341-3.845-40.744-7.07-61.085-10.047m-2196.465 890.481l36.899-33.488-36.899 33.488m-120.124 115.101l33.736-32.682-33.736 32.682m3478.946 5870.574c16.062-3.101 31.752-6.698 46.388-11.659-14.574 4.961-30.326 8.558-46.388 11.659M5188.309 224.372a1747.16 1747.16 0 0 1 66.729 8c-22.264-3.101-44.465-5.767-66.729-8m-963.597 151.194l64.62-24.186-64.62 24.186m-1032.186 640.248l46.326-38.946-46.326 38.946m-1841.24 1511.318c48.186 101.395 102.264 207.318 160.806 315.845 62.45-136.434 129.426-270.946 201.426-402.667l-75.659-152.93c-34.481-72.992-65.922-143.752-94.946-212.775-109.767 32.186-223.69 70.45-337.488 115.473 41.488 106.791 89.86 219.349 145.86 337.054"/><path d="M3537.829 5570.729c134.636-37.333 268.713-76.837 401.86-119.69-.31-.248-.496-.372-.744-.806-133.147 42.853-267.163 82.233-401.736 119.752.124.248.496.496.62.744m995.101 944.93c11.163-8 22.078-16.434 33.116-24.558l-33.488 24.372c.186.124.31.186.372.186M1688.588 3154.977c94.201 158.822 196.713 322.357 307.039 487.69 134.326 201.86 280.186 408.372 434.481 613.705 158.015 210.977 326.016 422.884 499.969 630.822 174.015 207.814 352.93 410.977 532.527 603.597l74.543 79.194 168.682-48.372 231.752-72.682-188.093-197.829c-179.411-192.744-358.512-396.031-532.341-603.969-174.139-207.628-342.326-420.031-500.093-630.45-154.109-205.581-300.279-411.721-434.543-613.767-132.093-198.202-253.891-393.612-362.17-581.333l-42.915-75.907c-50.605 100.651-98.667 202.171-144.062 304.62l-44.775 104.682m-634.233-1494.946c11.597 78.45 31.38 165.085 58.233 257.736 51.163-23.566 102.512-45.519 153.736-66.109 55.442-22.201 111.504-42.729 168-62.45-45.457-135.752-77.147-259.845-93.209-368.682-17.488-118.636-17.612-220.403-.806-303.194 8.558-40.496 21.581-76.279 38.388-108.031-132.403 141.519-244.837 298.543-336.93 468.031-1.178 55.504 2.605 116.279 12.589 182.698M6487.534 7093.83c-4.031 1.612-7.504 3.597-11.659 5.023-14.636 4.961-30.325 8.558-46.387 11.659-2.977.558-5.706 1.488-8.806 2.171-19.349 3.101-40 5.209-61.395 5.643-84.589 2.481-184.744-15.566-297.984-53.891-110.822-37.209-235.845-94.388-370.729-169.798-133.767-74.233-278.45-167.318-430.263-275.907-61.147-43.659-123.907-90.853-187.473-139.907-97.302 80-196.837 157.209-298.667 230.884 67.597 52.279 134.45 102.574 199.318 148.961 151.752 108.589 296.62 201.364 430.14 275.907 135.008 75.287 259.907 132.651 370.729 169.736 113.178 38.264 213.705 56.372 298.109 53.891 19.969-.682 38.822-2.481 56.992-5.271 48.248-26.294 95.752-53.643 141.767-83.659 31.938-21.023 63.566-41.984 94.388-65.116-30.946 22.636-62.264 44.403-94.388 65.116-9.488 6.264-18.481 13.333-28.155 19.411 34.791-22.14 69.271-45.023 102.512-69.333l-174.574 124.031c39.938-11.039 75.473-27.845 104.992-52.403l286.574-239.814c-7.008 6.016-15.442 10.543-23.38 15.814-4.775 3.411-9.364 7.194-14.884 10.109-11.349 6.698-24.062 11.783-36.775 16.744M1876.495 2743.938c-12.279 24.062-23.814 48.62-35.659 72.93l36.031-72.186c-.124-.062-.186-.496-.372-.744m2113.116 3283.411c171.721 164.899 342.946 319.318 507.721 458.853 11.597 9.922 22.822 18.977 34.418 28.589 101.829-73.426 201.116-150.698 298.295-230.512l-45.333-37.706c-165.829-140.093-336.496-294.45-508.403-459.473l-49.86-48.682c-132.651 45.271-265.86 88.434-400.186 128.62l163.349 160.31"/><path d="M4719.224 6374.822l-91.659 70.76 91.659-70.76m15.132-11.845l96.868-77.829c-.062-.062-.248-.248-.372-.31l-96.496 78.139M1161.767 1161.302c-28.651 23.876-51.845 53.891-70.388 89.178 34.976-41.86 71.131-82.543 108.899-121.426l-38.512 32.248m616 1788.217l40.682-86.698-40.682 86.698m-45.954 100.093l-14.574 34.108 23.318-53.085c-2.853 6.45-5.891 12.527-8.744 18.977m4404.838 4302.14c28.155-15.566 55.814-31.876 82.915-48.682-27.845 17.178-56.248 33.24-84.899 49.054.93-.124 1.426-.248 1.984-.372M3938.945 5450.233c.248.434.434.558.744.806.248 0 .558-.124.806-.248-.248-.124-.558-.558-.682-.806-.434.186-.62.248-.868.248M1920.34 2821.582c108.279 187.721 230.078 383.132 362.17 581.333 134.264 202.046 280.434 408.186 434.543 613.767 157.767 210.419 325.954 422.822 500.093 630.45 173.829 207.938 352.93 411.225 532.341 603.969l188.093 197.829c.186 0 .558-.186.744-.248l-188.589-198.326c-179.659-192.744-358.574-396.093-532.031-603.535-174.077-207.566-342.077-419.721-499.969-630.45-154.294-205.147-300.155-411.411-434.357-613.147-131.659-198.139-253.209-393.364-361.86-581.209l-43.597-77.147c-.186.31-.31.558-.496.806l42.915 75.907m-206.822-381.271c.31-.31.434-.682.558-.93l-74.357-151.194c-34.915-73.302-66.605-144.496-95.876-213.829-.31.124-.62.124-.93.248a5374.02 5374.02 0 0 0 94.946 212.775l75.659 152.93m2562.543 3345.674l-48.93-47.752c-.248 0-.62.186-.682.186l49.86 48.682c171.907 165.023 342.574 319.38 508.403 459.473l45.333 37.706c.186-.124.31-.248.496-.434l-46.76-38.822c-165.023-139.721-336.062-293.891-507.721-459.039M1876.867 2744.682c.248-.248.372-.62.434-.806-.062-.248-.186-.558-.434-.93-.124.496-.186.682-.372.992.186.248.248.682.372.744m3383.442 3874.046c151.814 108.589 296.496 201.674 430.264 275.907 134.884 75.411 259.907 132.589 370.729 169.798 113.24 38.326 213.395 56.372 297.984 53.891 21.395-.496 42.047-2.543 61.395-5.643 3.101-.682 5.829-1.612 8.806-2.171 16.062-3.101 31.814-6.698 46.388-11.659 4.155-1.426 7.628-3.411 11.659-5.023 12.589-4.961 25.426-10.047 36.775-16.744 5.519-2.915 10.109-6.698 14.884-10.109 10.543-6.76 21.023-13.457 30.326-21.705-53.643 44.713-124.837 68.899-211.659 71.07-84.403 2.605-184.744-15.814-297.798-53.643-111.07-37.643-236.031-94.698-370.605-169.86-133.644-74.295-278.016-167.07-429.705-275.845-60.713-43.287-123.163-90.109-186.294-138.543-.124.186-.31.372-.62.372 63.566 49.054 126.326 96.248 187.473 139.907m-3920-5501.395c-16.806 82.791-16.682 184.558.806 303.194 16.062 108.837 47.752 232.93 93.209 368.682.31-.124.744-.124 1.054-.372-45.023-135.008-76.155-258.667-92.527-367.008-17.614-118.202-17.924-220.155-.621-302.76 8.992-43.473 23.194-81.674 41.55-115.101-1.798 1.736-3.411 3.535-5.085 5.333-16.806 31.752-29.83 67.535-38.388 108.031"/><path d="M4830.852 6284.837c.124.062.31.248.372.31.248-.062.434-.31.558-.434-.124-.124-.248-.124-.31-.372-.248.248-.434.372-.62.496m1708.341 782.14c-4.775 3.411-9.364 7.194-14.883 10.109 5.519-2.915 10.109-6.698 14.884-10.109m-63.318 31.876c4.155-1.426 7.628-3.411 11.659-5.023-4.031 1.612-7.504 3.597-11.659 5.023m-55.194 13.829c3.101-.682 5.829-1.612 8.806-2.171-2.977.558-5.705 1.488-8.806 2.171m549.953-3976.372l-30.76 107.349-7.938 26.729-23.752 74.357c-1.488 5.085-3.473 10.046-5.085 15.132-84.465 257.674-190.512 508.899-314.357 751.876-10.357 20.713-21.333 41.054-32 61.581l-27.411 52.465c124.527-84.465 246.388-172.713 364.589-265.736 48.744-38.574 97.116-78.015 144.682-118.264 83.597-209.613 152.124-424.248 202.791-641.86-76.651-66.481-156.217-129.302-238.325-189.085l-27.287 107.597-5.147 17.86M1637.86 7180.961c-.62-.372-1.178-.806-1.985-1.116-18.605-10.047-36.899-20.217-55.07-31.07l-16.93-10.605-42.729-27.225c-10.419-7.194-20.713-14.698-30.946-22.202l-29.085-20.961c-20.217-15.442-40.124-31.628-59.845-48.186 153.922 132.217 303.008 275.845 485.519 368.868 33.55 17.116 67.783 32.434 102.388 46.822-116.651-63.69-227.783-136.31-328.434-230.76-8-7.504-15.07-15.876-22.884-23.566m4137.179-1842.727l-23.442 28.341-51.969 61.147c-263.132 308.899-553.302 598.512-867.845 856.992 81.922 68.155 162.605 132.837 241.675 193.736 466.047-383.132 879.814-834.047 1230.202-1320.93 141.085-196.031 274.543-402.357 396.155-616-193.116 134.202-393.674 258.543-599.442 374.14-103.256 144.992-211.907 285.953-325.333 422.574M4511.844 6530.791c-224.434 161.24-459.782 305.736-705.116 429.147-.434.31-1.054.558-1.364.806l-77.085 37.829-45.581 21.643-95.194 43.163c-6.387 2.853-12.651 6.016-19.101 8.62-70.636 30.822-143.628 59.845-218.295 87.132 63.752 34.915 128 68.775 193.426 100.279 46.264 22.574 93.147 44.093 140.465 64.744 224.186-90.729 438.202-200 631.504-313.612 157.395-92.589 310.264-193.426 458.667-300.837-79.008-60.961-159.628-125.767-241.24-194.047l-21.085 15.132m-2629.209 751.938c74.729 75.163 156.775 143.008 246.45 202.791 406.14 123.225 852.155 72.744 1276.775-61.271-113.86-53.147-225.736-111.628-335.194-175.194-397.519 110.14-815.752 147.411-1188.031 33.674m4784.558-6261.085c3.349 3.411 6.698 7.008 10.295 10.295 422.202 413.395 479.938 1049.798 390.264 1646.946a3540.29 3540.29 0 0 1 235.659 188.031l16.682-131.473c43.101-415.814 6.946-856.434-197.209-1221.519-125.333-224.434-317.705-376.434-508.217-540.031 7.38 6.388 14.325 13.209 21.581 19.659l30.946 28.093M3409.209 7193.737l-19.845-10.481c6.512 3.597 13.147 6.884 19.845 10.481m134.078 68.093c9.674 4.713 19.783 8.868 29.457 13.581l-37.271-17.612c2.667 1.302 5.209 2.667 7.814 4.031"/><path d="M4719.224 6374.822l-91.659 70.76-61.519 45.519-33.116 24.558c81.612 68.279 162.233 133.085 241.24 194.047 101.829-73.674 201.364-150.884 298.667-230.884-79.132-60.899-159.69-125.457-241.612-193.674l-96.869 77.829-15.132 11.845"/><path d="M4831.224 6285.147c81.922 68.217 162.48 132.775 241.612 193.674.31 0 .496-.186.62-.372-79.07-60.899-159.752-125.582-241.675-193.736-.124.124-.31.372-.558.434m-3341.023 803.597l30.946 22.202c14.078 9.426 28.341 18.295 42.729 27.225l16.93 10.605c18.17 10.853 36.465 21.023 55.07 31.07.807.31 1.303.62 1.861.992-2.791-2.729-5.209-5.519-8.124-8.248-79.256-42.481-155.659-92.899-228.341-152.992 19.721 16.558 39.628 32.744 59.845 48.186 9.55 7.256 19.287 14.016 29.085 20.961m3041.55-573.953c-230.884 166.636-473.178 316.341-726.14 444.155-143.628 72.62-297.86 140.589-457.612 199.008.682.31 1.24.62 1.798 1.054 81.116-29.643 160.682-61.705 237.705-95.628l95.194-43.163 45.581-21.643 78.45-38.636c245.333-124.031 480.372-268.465 705.116-429.147l20.713-15.318c-.248-.248-.496-.31-.806-.682m1566.635-1598.139l-3.349 1.922c-73.675 103.318-149.643 204.775-227.907 303.504-305.985 385.798-653.395 746.915-1036.589 1061.767.31.248.62.434.93.496 238.822-196.837 463.566-411.225 672.31-636.775 66.667-71.566 131.907-145.116 195.845-219.845l51.969-61.147 23.442-28.341 93.395-115.287c79.194-99.721 155.845-202.046 229.953-306.294M1874.635 7274.977c1.798 1.86 3.597 3.349 5.395 5.209 373.767 113.798 795.163 76.651 1189.892-31.442-.62-.31-1.116-.744-1.674-1.054-399.814 109.829-818.543 144-1193.612 27.287m4651.659-3046.946c.992-.496 1.736-1.178 2.481-1.736l27.969-52.961 32-61.581c123.349-243.101 229.333-494.202 314.357-751.876l28.836-89.488 7.938-26.729 30.76-107.349c11.287-41.364 21.891-83.286 32.124-125.705-.434-.248-.744-.496-1.302-.806l-20.899 84.217c-103.442 393.427-260.031 772.962-454.263 1134.016m151.194-3196.093c-3.597-3.287-6.946-6.884-10.295-10.295-10.047-9.612-20.651-18.729-30.946-28.093l-36.527-32.31c485.581 416.992 557.333 1093.891 466.233 1716.341.558.434 1.24.806 1.736 1.302 87.07-589.209 30.884-1232.682-390.202-1646.946"/><path d="M4531.751 6514.791c.31.372.558.434.806.682l33.488-24.372 61.519-45.519 91.659-70.76 15.132-11.845 96.496-78.14c-.186-.248-.496-.496-.806-.558-97.178 79.814-196.465 157.085-298.295 230.512"/><path d="M4830.852 6284.837c.186-.124.372-.248.62-.496-.31-.062-.62-.248-.93-.496-.186.186-.31.31-.496.434.31.062.62.311.806.559m-319.008 245.953c-224.744 160.682-459.783 305.116-705.116 429.147 245.333-123.411 480.682-267.907 705.116-429.147m2165.643-5498.853c421.085 414.264 477.271 1057.736 390.202 1646.946h.062c89.675-597.147 31.938-1233.55-390.263-1646.946M1521.146 7110.946c-10.419-7.194-20.713-14.698-30.946-22.202l30.946 22.202m114.729 68.899c.806.31 1.364.744 1.985 1.116l-.124-.124c-.558-.372-1.054-.682-1.861-.992m1714.233-20.713c74.667-27.287 147.659-56.31 218.294-87.132 6.45-2.605 12.713-5.767 19.101-8.62-77.023 33.922-156.589 65.984-237.705 95.628.248 0 .248 0 .31.124m-1769.302-10.357l-16.93-10.605 16.93 10.605m4170.79-1782.202l-51.969 61.147 51.969-61.147m-2023.318 1632l-45.581 21.643 45.581-21.643m3211.597-3754.915l30.76-107.349-30.76 107.349M5868.433 5222.946l-93.395 115.287c113.426-136.62 222.078-277.582 325.333-422.574-.682.248-1.426.558-1.984.992-74.109 104.248-150.76 206.574-229.953 306.295M1401.27 7019.597c19.721 16.558 39.628 32.744 59.845 48.186-20.217-15.442-40.124-31.628-59.845-48.186m5530.667-3749.209l-28.837 89.488c1.612-5.085 3.596-10.046 5.085-15.132l23.752-74.357M6636.247 993.55l30.945 28.093c-10.047-9.612-20.651-18.729-30.946-28.093m-79.504 3179.783l32-61.581c-10.356 20.713-21.209 41.054-32 61.581M4734.355 6362.977l-15.132 11.845 15.132-11.845m-106.791 82.605l-61.519 45.519 61.519-45.519M6465.89 4340.9l-14.202 24.806 14.202-24.806M1282.015 6039.752l-9.054-50.047 9.054 50.047M6520.34 4242.357l8.062-14.698c-.186.124-.372.186-.496.372-2.667 4.837-5.023 9.489-7.566 14.326M1253.984 5870.14l4.093 25.86-3.783-25.86h-.31m56.558 306.357c-2.232-9.426-4.155-19.039-6.263-28.651l6.264 28.651m6158.016-2758.139c-31.38 37.023-62.884 72.496-94.388 106.046-101.023 110.76-211.039 214.015-325.643 311.194-3.783 3.163-7.38 6.574-11.039 9.736-95.38 239.194-210.109 471.938-337.675 696.186 160.62-111.628 316.279-229.457 465.24-355.597 173.457-147.163 364.031-320.496 509.271-518.388-43.535-61.768-90.233-120.993-139.101-177.179-21.581-24.62-44.279-48.186-66.667-72M1843.999 5878.511c-.806-1.178-1.861-2.357-2.791-3.597h-.062c90.419 113.178 185.736 222.387 284.899 327.938h.372c-98.294-104.62-192.744-212.713-282.418-324.341m3829.706-1147.1c-338.357 176.372-687.194 333.395-1042.977 472.31-25.674 10.17-51.659 19.41-77.395 29.271l-195.969 74.17c-138.047 50.542-277.023 98.667-416.868 143.628 95.628 98.914 191.38 194.852 286.636 287.442 195.597-66.915 389.333-138.729 580.403-214.574 436.589-173.767 872.31-372.155 1287.504-605.085 156.899-220.403 302.078-450.357 430.512-688.93-.93.496-1.55.992-2.233 1.488-272.186 184.248-557.333 349.829-849.612 500.279M2279.72 5832.93c-144.868 19.101-290.481 33.613-436.341 41.861 90.543 113.054 185.86 222.326 285.023 327.876l24.248-1.798c565.767-50.605 1126.698-169.922 1673.613-333.829-96.124-95.69-192.558-194.791-288.434-296.31l-275.039 72.93c-323.659 81.86-652.031 147.411-983.07 189.271m-451.287 388.961c-96.93-109.519-190.388-222.388-278.636-339.411-96.248 0-192.248-3.597-287.876-11.597-1.985-.248-3.845-.372-5.643-.496 15.69 112.558 37.333 225.054 64.372 335.752 168 18.729 338.667 22.077 507.783 15.752m-820.279-381.085c-262.946-43.721-536.806-137.116-675.349-345.922-4.155-6.016-8-12.031-11.783-18.233-5.457-8.93-10.791-17.736-15.752-27.163-10.108-18.853-19.411-38.078-27.163-58.605l44.217 116.837c33.364 88.31 61.395 181.271 103.194 266.047 92.403 186.853 292.837 290.295 483.659 349.891 55.876 17.488 112.558 31.628 169.923 44.093l-12.465-44.528c-23.814-93.085-42.481-187.597-58.481-282.418m6766.45-3160.31c25.798 175.256-41.302 354.667-143.752 518.388 64.496 78.14 124.651 161.737 177.612 249.799 37.147-76.217 66.481-155.225 83.969-237.457 47.132-223.008-67.411-432.434-144.434-635.783 6.512 17.116 11.969 34.419 16.248 51.721 4.403 16.434 7.132 32.744 9.675 49.178.248 1.364.558 2.666.682 4.155M3939.689 5451.039c-133.147 42.853-267.225 82.357-401.86 119.69l288.434 296.31c134.326-40.186 267.535-83.349 400.186-128.62-95.256-92.465-191.07-188.589-286.76-287.38"/><path d="M4226.449 5738.419c.062 0 .434-.186.682-.186-95.256-92.589-191.008-188.527-286.636-287.442-.248.124-.558.248-.806.248 95.69 98.791 191.504 194.915 286.76 287.38m2301.954-1510.76l-8.062 14.698-54.45 98.543-14.202 24.806c-107.597 188.899-225.116 372.465-351.318 549.953 205.767-115.598 406.326-239.939 599.442-374.141 127.566-224.248 242.294-456.992 337.674-696.186-161.426 137.612-332.713 264-509.085 382.326m-2.852 1.985c-128.434 238.574-273.612 468.527-430.512 688.93l3.349-1.922c126.388-177.612 245.023-361.488 353.302-550.946l14.202-24.806 54.45-98.543 7.566-14.326c-.868.496-1.612 1.054-2.357 1.612"/><path d="M6520.34 4242.357l-54.45 98.543 54.45-98.543m-419.969 673.302c126.202-177.489 243.721-361.054 351.318-549.954-108.279 189.457-226.915 373.333-353.302 550.946.558-.434 1.302-.744 1.984-.992m-3467.845 862.822c211.225-37.581 421.395-83.101 630.264-134.822 10.853-2.667 21.767-5.83 32.806-8.807-219.411 55.256-440.062 103.256-662.388 142.636-148.651 26.17-298.853 48.868-449.674 66.418l96.186-10.977c118.14-15.628 235.969-33.86 352.806-54.45m-1624.868 59.039l-49.178-8.682c-153.922-31.318-326.139-83.349-463.194-176.062 144.434 100.651 330.171 155.535 512.62 186.047-.124-.372-.248-.806-.248-1.302M7251.999 3648.62l-47.442 45.643 47.442-45.643m-5384.62 2223.442l-24.868 1.612c.062.124.062.186.124.186 8.372-.31 16.496-1.24 24.744-1.798M321.022 5476.651c3.721 6.325 7.752 12.217 11.783 18.233 33.488 49.054 74.977 91.411 121.736 128.248-75.845-61.209-137.426-137.364-176.434-232.248 7.752 20.527 17.178 39.752 27.163 58.605 4.961 9.24 10.171 18.357 15.752 27.163m1546.357 395.411c56.744-3.349 113.426-7.814 169.922-13.023l-169.923 13.023m3965.643-1226.419l79.008-42.543c-26.047 14.574-52.713 28.279-79.008 42.543m-2295.876 924.341c-1.55.372-2.977.744-4.465 1.302 1.488-.558 2.914-.93 4.527-1.302h-.062m2374.884-966.884l72.062-40.744-72.062 40.744m72.062-40.744c79.504-45.085 158.574-91.287 236.589-138.791-78.015 47.504-157.147 93.457-236.589 138.791m-1430.759 670.636l77.395-29.271c214.016-84.652 425.488-175.691 633.674-272.187 137.364-63.752 274.047-130.481 409.302-200.124l159.318-85.767c-187.163 100.961-377.551 195.845-569.364 285.023-305.55 141.767-618.047 271.256-936.124 386.853l29.829-10.357 195.969-74.171M6525.55 4229.643c.248-.558.558-1.116.744-1.612-59.783 40.558-120.496 80.062-181.643 118.822l178.666-115.721c.682-.496 1.364-.992 2.233-1.488m-266.171 170.543l-38.698 23.38 18.109-10.605 20.589-12.775"/><path d="M6259.379 4400.186l85.271-53.333-85.271 53.333M3295.596 5634.853c23.07-5.643 46.078-12.031 69.147-18.171l-69.147 18.171m69.147-18.171l167.938-45.395-167.938 45.395m-1239.38 233.798l58.171-6.574-58.171 6.574m-88.062 8.558l88.062-8.558-88.062 8.558m-196.713 15.07c0-.124-.124-.248-.124-.248h-.124l.124.248h.124m-586.357-4.031c-.062-.372-.124-.868-.248-1.364h-.186c0 .372.124.868.186 1.364h.248m5274.543-1643.783c-.372.558-.558 1.116-.868 1.736.186-.186.31-.372.496-.496.372-.496.744-1.178.93-1.736-.124.186-.372.31-.558.496m1245.829-1545.798c-.124-1.488-.434-2.791-.682-4.155-2.419-16.434-5.395-32.744-9.674-49.178-5.395-21.023-11.659-42.046-20.217-63.008 80.434 213.395-1.426 439.008-117.83 629.271.434.62.992 1.116 1.55 1.736 96.558-156.651 170.728-337.984 146.852-514.667M4327.534 5317.519c-128.868 46.14-258.791 89.488-389.209 131.163.496.372.93.868 1.488 1.302 130.046-41.798 259.411-85.829 387.721-132.465m3138.791-1901.767c-66.729 81.612-138.729 159.07-214.326 232.868 9.674-9.364 19.659-18.295 29.023-27.845 29.643-29.705 61.209-62.077 93.147-96.372 32.186-35.163 62.884-71.132 92.899-107.721-.311-.31-.559-.558-.745-.93M1261.921 5870.884l65.054 4.527c74.171 4.527 148.217 6.326 222.512 6.698-.31-.372-.745-.93-1.117-1.302-73.24-.558-146.667-2.295-219.845-6.946l-72.434-5.023c0 .496.062.992.186 1.426 1.798.124 3.659.372 5.643.62m-800.31-242.294c10.915 8.558 22.264 16.434 33.674 24.186-11.349-7.876-22.884-15.566-33.674-24.186m-7.07-5.457c2.357 1.922 4.589 3.597 7.07 5.457l-7.07-5.457m6584.062-1781.333c-.248.992-.496 2.046-.93 2.977 3.473-3.163 7.318-6.14 10.853-9.178 53.395-45.767 105.116-93.023 156.031-141.333-53.891 50.729-109.333 99.845-165.953 147.535M3537.146 5569.985h.062c134.574-37.52 268.589-76.899 401.737-119.752-.496-.434-.93-.744-1.364-1.302l-231.752 72.682-168.682 48.372"/><path d="M3938.945 5450.233c.248 0 .434-.062.868-.248-.558-.434-.992-.93-1.488-1.302-.186.062-.558.248-.744.248.434.558.868.868 1.364 1.302m2590.388-1224.434c-.186.558-.558 1.24-.93 1.736 118.45-80.372 234.605-163.721 347.411-251.535 54.512-42.481 108.589-86.387 161.86-131.225.434-.93.682-1.985.93-2.977-47.566 40.248-95.938 79.69-144.682 118.264-118.202 93.023-240.062 181.271-364.589 265.736m-3.039 2.233c-.186.496-.496 1.054-.744 1.612.744-.558 1.488-1.116 2.357-1.612.31-.62.496-1.178.868-1.736-.744.558-1.488 1.24-2.481 1.736"/><path d="M6527.906 4228.031c.124-.186.31-.248.496-.372v-.124c-.186.124-.31.31-.496.496M4553.332 5232.992l-195.969 74.171c65.612-23.752 130.791-49.116 195.969-74.171m77.395-29.271c355.783-138.915 704.62-295.938 1042.977-472.31-135.256 69.643-271.938 136.372-409.302 200.124-208.185 96.496-419.658 187.534-633.673 272.186m1892.589-972.59c.682-.496 1.302-.992 2.233-1.488-.868.496-1.55.992-2.233 1.488M332.805 5494.884c-4.031-6.016-8.062-11.907-11.783-18.233 3.783 6.202 7.628 12.217 11.783 18.233m994.171 380.527l-65.054-4.527c95.628 8 191.628 11.597 287.876 11.597-.062-.124-.248-.248-.248-.248-74.357-.496-148.403-2.295-222.574-6.822m6437.271-3248.248c4.279 16.434 7.256 32.744 9.674 49.178-2.543-16.434-5.271-32.744-9.674-49.178m-726.76 1218.171l11.039-9.736c-3.535 3.039-7.38 6.015-10.853 9.178-.062.124-.062.372-.186.558m737.116-1164.837c23.876 176.682-50.294 358.016-146.853 514.667.868 1.178 1.984 2.481 3.101 3.721 102.45-163.721 169.55-343.132 143.752-518.388M2279.72 5832.93c331.039-41.86 659.411-107.411 983.07-189.271-208.868 51.721-419.039 97.24-630.264 134.822-116.837 20.589-234.667 38.822-352.806 54.45m5094.45-2308.527c31.504-33.55 63.008-69.023 94.388-106.046a20.27 20.27 0 0 0-1.488-1.674c-30.016 36.589-60.713 72.558-92.899 107.721M278.108 5390.884c7.752 20.527 17.054 39.752 27.163 58.605-9.985-18.853-19.411-38.078-27.163-58.605"/><path d="M6875.813 3976c-112.806 87.814-228.961 171.163-347.411 251.535v.124c176.372-118.326 347.659-244.713 509.085-382.326.124-.186.124-.434.186-.558-53.271 44.837-107.349 88.744-161.86 131.225m-350.263 253.643c.744-.558 1.488-1.116 2.357-1.612-.868.496-1.612 1.054-2.357 1.612M3876.371 1912.372c904.558 96 1811.287 340.155 2614.512 777.302 175.566 95.504 347.473 201.798 510.574 320.124 25.86-107.597 48-218.977 64.496-332.217-165.395-120.62-340.031-228.713-518.139-325.581-802.915-436.961-1710.45-681.054-2614.574-777.116-413.271-43.845-840.372-58.729-1263.752-28.341-99.845 116.341-194.729 237.147-284.775 361.736 495.504-56.496 999.256-48.062 1491.659 4.093M1155.937 2055.07c-16.31-47.504-30.388-92.837-43.349-137.302-104.682 48-207.876 102.76-306.543 165.023-28.527 111.132-50.791 224.744-66.853 339.845 146.977-92.651 306.419-169.24 466.233-232.558-17.799-46.015-34.605-91.411-49.488-135.008m5889.178 758.822c-12.527 66.481-26.915 132.093-42.357 196.713.124.186.31.186.31.248 15.442-64.496 29.582-130.233 42.047-196.961M276.867 2597.395C143.348 2815.876 118.48 3063.38 77.736 3309.953c52.093-311.752 231.318-556.899 467.721-748.713 15.194-114.109 36.403-226.853 64.496-337.675-130.17 105.922-245.023 229.271-333.085 373.829m7531.597 851.287c-37.395 76.093-82.729 148.961-134.14 218.853 200.62 284.465 332.775 624.682 273.302 980.651l56.248-337.612c51.845-307.783-40.186-603.597-195.411-861.891M2593.457 1633.861c-73.116 89.24-143.318 180.961-211.039 274.791h.682c67.287-93.83 137.55-185.55 210.357-274.791M7046.79 2804.527l9.984-56.806-9.984 56.806m-5502.946-730.171l118.884-32.93c111.752-29.147 224.558-53.891 338.109-75.163 86.822-129.86 179.039-256 275.907-378.171-286.698 41.302-568.992 106.233-841.364 200.744 3.225 9.302 5.767 18.233 8.93 27.597 27.969 81.674 61.643 168 99.535 257.922m5518.76 637.705l3.721-24c-1.116 8.062-2.481 16.186-3.721 24M2667.007 1546.605l-58.419 68.589 58.419-68.589m4799.318 1869.147c19.597-24 39.132-48.31 57.798-73.116 34.977-46.202 69.706-96.496 102.078-149.209l-34.233-40.806c-89.178-102.388-186.295-196.899-288.558-285.705a3896.42 3896.42 0 0 1-62.015 333.023c78.698 68.093 153.674 139.969 224.93 215.814"/><path d="M1112.588 1917.767c12.961 44.465 27.039 89.799 43.349 137.302 14.884 43.597 31.69 88.992 49.488 135.008 113.798-45.023 227.721-83.287 337.488-115.473-38.201-90.419-72.248-177.364-100.403-259.349l-8.186-26.046c-56.496 19.721-112.558 40.248-168 62.45-51.225 20.589-102.574 42.543-153.737 66.109"/><path d="M1442.511 1815.256c28.155 81.985 62.202 168.93 100.403 259.349.31-.124.62-.124.93-.248-37.891-89.922-71.566-176.248-99.535-257.923l-8.93-27.597c-.31.248-.744.248-1.054.372l8.186 26.047m5623.815 872.806c-1.116 8.062-2.481 16.186-3.721 24l-5.829 35.659-9.984 56.806c-.434 3.039-1.054 6.264-1.674 9.364-12.465 66.729-26.605 132.465-42.047 196.961 82.108 59.783 161.674 122.605 238.325 189.085a3896.28 3896.28 0 0 0 62.016-333.023 3540.24 3540.24 0 0 0-235.659-188.031c-.434 3.101-.992 6.202-1.426 9.178"/><path d="M7002.759 3010.605c15.442-64.62 29.829-130.233 42.357-196.713.62-3.101 1.24-6.326 1.674-9.364l9.984-56.806 5.829-35.659 3.721-24 1.364-9.178c-.496-.496-1.178-.868-1.736-1.302-16.496 113.24-38.636 224.62-64.496 332.217.558.31.868.558 1.302.806"/><path d="M7056.774 2747.721l5.829-35.659-5.829 35.659m-11.659 66.171l1.674-9.364-1.674 9.364m22.574-135.008l-1.364 9.178 1.426-9.178h-.062m563.163 520c-48.62 77.457-104.558 151.256-162.295 219.473l66.667 72c48.868 56.186 95.566 115.411 139.101 177.178 51.411-69.892 96.744-142.76 134.14-218.853-52.961-88.062-113.116-171.659-177.612-249.798m-164.528 216.868c.186.372.434.62.744.93l44.589-55.194c39.194-50.729 79.194-106.853 116.093-166.326-.558-.62-1.116-1.116-1.55-1.736-32.372 52.713-67.101 103.008-102.078 149.209-18.667 24.806-38.202 49.116-57.798 73.116"/><path d="M7511.658 3361.488c-14.326 18.729-29.643 36.899-44.589 55.194a20.29 20.29 0 0 1 1.488 1.674c57.736-68.217 113.675-142.015 162.295-219.473-1.116-1.24-2.233-2.543-3.101-3.721-36.899 59.473-76.899 115.597-116.093 166.326M1170.511 4808.992l-36.403-76.775 36.403 76.775m-67.287-146.791l-37.767-86.016 37.767 86.016m1072.372 2857.674c-20.837-12.341-41.426-25.24-61.457-38.698-42.108-13.271-83.783-28.713-124.961-45.891 105.922 57.922 216.372 108.403 328 160.31-4.651-2.294-8.868-5.085-13.457-7.132-40.682-19.349-80.31-39.938-118.264-62.45-3.225-1.922-6.574-4.031-9.86-6.14M1017.332 4456.558l24.372 60.155-24.31-60.775c0 .248 0 .372-.062.621m428.217 2152.682c-.124-.248-.248-.558-.248-.558-18.605-46.077-35.907-92.899-51.845-140.031-1.178-3.039-2.109-6.015-3.101-8.93-14.946-44.899-28.961-89.86-41.86-135.566l-5.147-18.853c-9.178-32.992-17.612-66.047-25.736-99.411-80.186-8.992-160-21.209-238.512-38.14 101.147 375.628 277.767 734.202 550.512 1004.837 75.225 40.062 153.178 72.806 233.116 98.418-180.527-185.55-317.085-413.395-417.178-661.767m-191.752-740.527c-1.364-10.295-2.357-20.527-3.597-30.698-4.217-31.752-7.938-63.752-11.163-95.566l-4.28-41.674c-3.721-39.938-6.574-79.69-8.992-119.256l-1.364-17.364c-.124-3.411-.124-6.884-.372-10.233l-3.907-91.473c-.31-8.124-.124-16.496-.372-24.682l-1.364-48.434c-91.783-153.985-175.938-312.124-251.783-473.923-19.659 309.891-8.558 619.659 41.054 922.109 38.45 6.946 76.961 12.837 115.535 18.047 44.589 5.333 88.434 9.612 130.605 13.147"/><path d="M1123.193 5855.566c-37.954-4.465-76.465-10.171-115.287-16.744.124.682.186 1.302.248 1.984 84.899 13.953 168.496 23.194 245.829 29.333v-.062c-43.721-3.721-87.256-8.744-130.791-14.512m83.969-970.357l26.419 51.411.062-.124-26.481-51.287m1461.023-3340.093l50.853-59.225c14.512-16.558 29.395-32.558 44.093-48.744l69.892-76.465 36.341-37.582 81.178-83.163 33.736-32.682 86.388-82.419 36.899-33.488 84.961-75.535 46.326-38.946 76.775-63.504 21.023-17.426 73.302-56.744 7.194-5.643 44.961-33.24c.372-.186.682-.558 1.116-.868 191.689-140.403 401.798-266.667 622.077-365.581l32.806-14.264 36.651-15.814c17.364-7.38 35.039-14.264 52.713-21.333 5.829-2.171 11.411-4.713 17.24-6.884l64.62-24.186a174.28 174.28 0 0 1 6.078-1.985c265.488-94.822 540.651-145.612 813.209-131.163.682 0 1.24.186 1.86.186 23.814 1.178 47.566 2.977 71.38 5.147 2.108.248 4.279.682 6.449.806 22.264 2.233 44.465 4.899 66.729 8l12.093 1.984c20.341 2.977 40.744 6.202 61.085 10.047l18.356 3.969 54.822 11.659 25.675 6.76c15.752 4.093 31.814 8 47.566 12.713 11.287 3.287 22.636 7.07 34.046 10.791l39.194 12.465c15.256 5.209 30.325 11.039 45.581 16.992l27.597 10.233c24.31 9.923 48.744 20.403 72.93 31.628-271.38-125.644-532.713-245.705-839.07-263.318-840.806-47.814-1639.69 483.101-2219.969 1080.93-126.077 129.798-245.395 266.729-358.202 408.868 129.364-18.543 259.659-32.062 390.264-41.488a8.25 8.25 0 0 1 1.178-1.488M1249.27 4776.558l11.845-92.961 10.046-75.411 10.046-62.574 17.24-105.426c.31-.682.434-1.178.496-1.86 75.349-419.039 200.744-831.194 363.349-1225.364l8.682-21.209 16.124-39.318-53.581-91.101c-42.729-73.923-82.915-146.605-121.426-218.357-102.326 223.256-192.124 451.721-268.155 683.349-98.419 299.287-176.124 610.667-225.985 926.636 63.504 163.225 135.938 323.473 215.938 479.938l9.426-97.922 5.954-58.419m627.597-2033.612l19.225-36.713 7.752-15.132c140.155-271.628 299.783-534.326 478.574-782.45-127.814 14.636-255.194 33.86-381.581 57.612-102.636 152.992-198.326 311.07-286.76 473.116 49.799 98.543 104.372 200.186 162.791 303.566m-237.643 4438.636c74.294 39.814 151.318 71.814 230.636 96.868-.62-.682-1.364-1.364-2.171-2.295-78.388-24.62-154.915-55.628-228.465-94.574"/><path d="M1687.1 3152.434l30.14-68.713c5.085-11.225 9.674-22.822 14.574-34.108l8.744-18.977 37.209-81.116 40.682-86.698 7.752-16.744 14.636-29.209 35.659-72.93c-58.481-103.566-113.054-205.085-162.977-303.628-72 131.721-138.977 266.233-201.426 402.667 38.512 71.752 78.698 144.434 121.426 218.357l53.581 91.101"/><path d="M1876.867 2742.946c-58.419-103.38-112.992-205.023-162.791-303.566-.124.248-.248.62-.558.93 49.922 98.543 104.496 200.062 162.977 303.628.186-.31.248-.496.372-.992m-7.008 4535.504c-79.318-25.054-156.341-57.054-230.636-96.868-.496-.124-.93-.496-1.364-.62 7.814 7.69 14.884 16.062 22.884 23.566 100.651 94.449 211.783 167.07 328.434 230.76 41.178 17.178 82.853 32.62 124.961 45.891-89.054-59.349-170.17-127.566-244.279-202.729"/><path d="M1639.224 7181.581c73.55 38.946 150.077 69.953 228.465 94.574-1.674-1.612-3.349-3.411-4.961-5.147-79.938-25.612-157.891-58.356-233.116-98.418 2.915 2.729 5.333 5.519 8.124 8.248.558.248.868.496 1.488.744"/><path d="M1637.86 7180.961c.434.124.868.496 1.364.62-.62-.248-.93-.496-1.488-.744l.124.124m-327.318-1004.465c-2.233-9.426-4.155-19.039-6.264-28.651-8.062-35.969-15.38-71.876-22.264-108.093l-9.054-50.047-14.884-93.705-4.093-25.86c-77.333-6.14-160.93-15.38-245.83-29.333 16 94.822 34.667 189.333 58.481 282.419 3.845 14.946 8.434 29.643 12.465 44.527 78.512 16.93 158.326 29.147 238.512 38.14l-7.07-29.395"/><path d="M1253.798 5868.713c-42.17-3.535-86.015-7.814-130.605-13.147 43.535 5.767 87.07 10.791 130.791 14.512-.062-.496-.186-.992-.186-1.364m-130.605-13.147c-38.575-5.209-77.086-11.101-115.536-18.047 0 .496.124.93.248 1.302 38.822 6.574 77.333 12.279 115.287 16.744m1259.225-3946.915c67.721-93.83 137.923-185.55 211.039-274.791 5.209-6.078 10.046-12.465 15.132-18.667l58.419-68.589c-130.605 9.426-260.899 22.946-390.264 41.488-96.868 122.171-189.085 248.31-275.907 378.171 126.388-23.752 253.768-42.977 381.582-57.612M1256.092 5868.837c-14.201-102.14-23.938-204.403-29.457-305.55-3.225-56.806-5.209-113.736-6.14-170.667-.434-.744-.806-1.55-1.24-2.233l.496 47.38 4.279 116.155 1.737 27.597 8.992 119.256 4.279 41.674 11.162 95.566 3.783 30.698c.62.062 1.488.124 2.108.124M5593.456 319.752c-15.256-5.954-30.325-11.783-45.581-16.992-13.085-4.527-26.233-8.372-39.194-12.465l-34.047-10.791c-15.752-4.589-31.814-8.62-47.566-12.713l-25.675-6.76c-18.419-4.279-36.589-8.062-54.822-11.659l-18.357-3.969c-20.341-3.721-40.744-7.07-61.085-10.046l-12.093-1.984c-22.264-3.101-44.465-5.767-66.729-8-2.171-.124-4.341-.558-6.45-.806-23.814-2.108-47.566-3.969-71.38-5.147-.62 0-1.178-.186-1.86-.186-272.434-14.14-547.845 36.589-813.209 131.163-2.047.62-4.093 1.302-6.078 1.985l-64.62 24.186c-5.83 2.171-11.411 4.589-17.24 6.884l-52.713 21.333-36.651 15.814-32.806 14.262c-219.535 98.915-429.643 225.054-622.077 365.582-.434.31-.744.682-1.116.868l-52.155 38.884c-31.876 24.248-63.194 49.116-94.326 74.17l-76.775 63.504-46.326 38.946-84.961 75.535-36.899 33.488c-29.209 27.039-57.985 54.636-86.388 82.419l-33.736 32.682-81.178 83.163-36.341 37.581c-23.504 24.992-46.822 50.729-69.892 76.465l-44.093 48.744c-17.24 19.473-33.923 39.504-50.853 59.225a8.25 8.25 0 0 0-1.178 1.488c.682 0 1.426-.062 2.481-.062 202.667-236.961 424.868-455.628 667.473-648.31 664.559-528.124 1558.512-891.907 2357.024-536.62-24.186-11.225-48.62-21.705-72.93-31.628-9.24-3.721-18.481-6.76-27.597-10.232M1254.232 5870.078l.062.062c.682.124 1.488.124 1.985.248v-.124c-.682 0-1.302-.124-2.046-.186m921.364 1649.798l9.86 6.14c37.953 22.512 77.581 43.101 118.264 62.45l33.426 15.876c-74.108-34.294-142.574-75.1-208.062-118.821-3.101-.93-6.264-1.612-9.364-2.728 18.543 12.403 36.527 25.488 55.876 37.085m-941.767-2583.132v.248c.434.868.93 1.736 1.426 2.791v-.124c-.496-1.054-.992-1.922-1.426-2.915m637.147 2340.589l2.419 2.481c3.101.744 6.078 1.922 9.24 2.915-.93-.992-1.736-1.612-2.605-2.542-3.163-.93-6.078-2.109-9.054-2.853m25.116-4571.101l-18.791 37.643c.31.31.434.744.62.992 146.667-290.667 315.907-571.969 506.791-836.589-.558.124-1.116.124-1.612.372-179.163 248.434-339.039 511.38-479.256 782.45-2.419 5.023-5.147 10.108-7.752 15.132m-208.558 446.884l-16.558 38.635-8.682 21.209c-161.922 393.426-287.628 805.891-363.349 1225.364-.062.682-.186 1.178-.496 1.86l-17.24 105.426-10.046 62.574c-3.783 25.116-6.698 50.233-10.046 75.411l-11.845 92.961-5.954 58.419-9.116 98.419c.372.806.868 1.736 1.302 2.605 49.488-610.481 214.326-1216.186 453.085-1781.023-.372-.496-.62-1.24-1.054-1.86m178.109 4118.822c3.101.992 6.015 2.109 8.992 3.039-278.884-284.217-455.752-665.24-553.984-1068.837-.93 0-1.799-.124-2.667-.186l25.364 99.349 5.147 18.853c12.961 45.706 26.853 90.667 41.861 135.566.992 2.915 1.922 5.891 3.101 8.93 15.938 47.132 33.178 93.953 51.845 139.969a5.84 5.84 0 0 0 .248.62c100.465 248.806 238.76 476.651 420.093 662.698"/><path d="M1688.588 3154.977l44.775-104.682c45.395-102.45 93.457-203.969 144.062-304.62-.124-.248-.248-.558-.558-.992l-36.031 72.186-22.388 45.954-40.682 86.698-37.209 81.116-23.318 53.085-29.705 69.395c.434.62.682 1.364 1.054 1.86"/><path d="M1877.426 2745.674c.186-.248.31-.496.496-.806-.186-.248-.31-.682-.62-.992-.062.186-.186.558-.434.806.31.434.434.744.558.992m-4.031 4534.14c74.543 75.411 156.527 143.38 246.325 202.977 3.101 1.116 6.264 1.798 9.364 2.729-89.675-59.783-171.721-127.628-246.45-202.791-3.163-.992-6.14-2.171-9.24-2.915m-7.752-7.876c1.674 1.86 3.597 3.597 5.333 5.395 2.977.744 5.891 1.922 9.054 2.853-1.798-1.859-3.597-3.348-5.395-5.208-2.977-.93-5.891-2.047-8.992-3.039M1320.65 6206.14c-27.039-110.698-48.682-223.194-64.372-335.752-.496-.124-1.302-.124-1.985-.248l3.783 25.861 14.884 93.705 9.054 50.046 22.264 108.093 6.264 28.651c2.171 9.922 5.023 19.473 7.442 29.457.868.062 1.736.186 2.667.186m-64.558-337.302a24.04 24.04 0 0 1-2.109-.124c.124.496.186.992.248 1.364.744.062 1.364.186 2.047.186-.124-.434-.186-.93-.186-1.426m1352.496-4253.644l-15.132 18.667c-72.806 89.24-143.07 180.961-210.357 274.791.496-.248 1.054-.248 1.612-.372 90.046-124.589 184.93-245.396 284.775-361.737-1.054 0-1.798.062-2.481.062l-58.419 68.589M4289.332 351.38c1.984-.682 4.031-1.364 6.078-1.985-2.047.62-4.093 1.302-6.078 1.985M1445.301 6608.62c-18.667-46.016-35.907-92.837-51.845-139.969 15.938 47.132 33.24 93.953 51.845 139.969M4207.472 382.45l17.24-6.884c-5.829 2.171-11.411 4.713-17.24 6.884m974.388-158.884c2.109.248 4.279.682 6.45.806-2.171-.124-4.341-.558-6.45-.806m146.357 20.837l18.356 3.969-18.357-3.969m-219.597-26.171c.682 0 1.24.186 1.86.186-.62 0-1.178-.186-1.86-.186m146.419 14.139l12.093 1.985-12.093-1.984m-1136.93 187.225l36.651-15.814-36.651 15.814M1243.317 4834.976l5.953-58.419-5.954 58.419m147.039 1624.744c-15.008-44.899-28.899-89.86-41.86-135.566 12.899 45.705 26.915 90.667 41.861 135.566M2869.363 1323.1l81.178-83.163-81.178 83.163m-106.233 114.046l69.892-76.465-69.892 76.465M5693.984 361.612c-24.186-11.225-48.62-21.705-72.93-31.628 24.31 9.923 48.744 20.403 72.93 31.628M2668.185 1545.116l50.853-59.225c-17.24 19.473-33.923 39.504-50.853 59.225m570.667-568.248l76.775-63.504c-26.046 20.837-51.349 42.109-76.775 63.504m-254.574 230.388l86.388-82.419c-29.209 27.039-57.985 54.636-86.388 82.419m432.868-373.705c-2.295 1.861-4.775 3.783-7.194 5.643l52.155-38.884-44.961 33.24m46.078-34.109c192.434-140.528 402.543-266.667 622.077-365.582-220.279 98.915-430.388 225.178-622.077 365.582m-355.659 291.907l84.961-75.535-84.961 75.535M1445.549 6609.24c100.093 248.372 236.651 476.217 417.178 661.768.868.372 1.922.682 2.915.93-181.333-186.047-319.628-413.891-420.093-662.698M5474.635 279.504c11.287 3.287 22.636 7.07 34.047 10.791l-34.047-10.791"/><path d="M2175.596 7519.876c-19.349-11.597-37.333-24.682-55.876-37.085-1.86-.496-3.721-.992-5.581-1.612 20.031 13.457 40.62 26.357 61.457 38.698m-279.504-4813.643l7.752-15.132c-2.418 5.023-5.147 10.108-7.752 15.132M5401.395 260.031l25.674 6.76-25.674-6.76M1867.689 7276.155c.806.93 1.55 1.612 2.171 2.295 1.24.558 2.357.806 3.535 1.364l-2.419-2.481c-1.116-.248-2.109-.744-3.287-1.178M1687.1 3152.434l-16.124 39.318 16.558-38.636c-.062-.248-.248-.372-.434-.682M1220.123 5462.45l3.907 91.473-4.279-116.155c.248 8.186.062 16.558.372 24.682m61.085-916.837l17.24-105.426-17.24 105.426m-31.008 1292.403c-4.217-31.752-7.938-63.752-11.163-95.566l11.162 95.566m48.744-1399.69c75.721-419.473 201.426-831.938 363.349-1225.364-162.605 394.171-288 806.326-363.349 1225.364m-64.186 1262.45c-3.659-39.938-6.636-79.69-8.992-119.256l8.992 119.256m1068.962 1887.69c-40.682-19.349-80.31-39.938-118.264-62.45 37.953 22.512 77.581 43.101 118.264 62.45M1261.115 4683.598l10.046-75.411-10.046 75.411M5547.875 302.76c15.256 5.209 30.326 11.039 45.582 16.992-15.256-5.954-30.326-11.783-45.581-16.993M1317.612 6205.891c8.124 33.364 16.558 66.419 25.736 99.411-9.178-32.806-17.24-66.046-25.364-99.349 0 0-.186-.062-.372-.062m508.589-3359.814l-7.752 16.744 22.388-45.954-14.636 29.209m-85.643 184.558l37.209-81.116-37.209 81.116"/><path d="M1717.239 3083.721l-30.139 68.713c.186.31.372.434.434.682l29.706-69.395m396.899 4397.457l5.581 1.612c-89.798-59.597-171.783-127.566-246.325-202.977-1.178-.558-2.295-.806-3.535-1.364 74.109 75.163 155.225 143.38 244.279 202.729m-248.496-209.24c-.992-.248-2.046-.558-2.915-.93 1.612 1.736 3.287 3.535 4.961 5.147 1.178.434 2.171.93 3.287 1.178-1.736-1.798-3.659-3.535-5.333-5.395m-555.101-1095.442c2.171 9.861 4.713 19.473 7.07 29.395.186 0 .31.062.31.062l-7.38-29.457m-6.264-28.651c-8.062-35.969-15.38-71.938-22.264-108.093l22.264 108.093m-31.318-158.14L1258.077 5896l14.884 93.705M2593.457 1633.86c5.209-6.078 10.046-12.465 15.132-18.667l-15.132 18.667m3525.83 5727.318l-28.713 15.38c-39.442 20.589-79.132 40.248-119.814 58.047-2.48 1.054-4.961 1.984-7.504 3.039-1.674.682-3.411 1.24-5.147 1.984-475.721 205.705-1004.961 228.217-1521.116 125.643-159.69-31.194-317.581-74.109-471.566-127.814-85.457-29.829-169.675-63.38-253.209-99.287l-30.077-12.589c-.31 0-.496-.248-.806-.31-90.357 36.403-182.388 69.643-275.473 98.977 312.682 146.171 640.496 252.093 976.744 304.186 416.496 64.62 842.853 43.101 1233.054-91.101 204.031-69.953 382.512-175.256 555.349-293.953-11.101 3.163-22.264 6.202-34.357 8.372-5.581 3.163-11.473 6.202-17.364 9.426M1399.1 980.465c38.574-39.132 79.132-76.155 120.558-112.186L1543.224 848c36.651-30.946 73.984-60.961 112.682-89.178-124.465 90.853-251.969 178.729-365.953 282.667-30.822 28.155-60.465 57.55-89.674 87.566l248.248-207.504c-18.791 16.744-34.853 37.085-49.426 58.915m-180.837 4295.628l2.791-115.287-2.791 115.287m-216.062-858.605l-17.054-46.636-40.93-114.481c-3.783-11.038-7.256-22.325-10.977-33.612l-41.24-128.806-6.636-23.442-39.318-139.907c-1.612-6.077-2.977-12.217-4.589-18.418l-35.039-144.496-4.651-22.326-28.279-139.597-6.45-38.387-19.721-120.93-2.357-14.015-6.698-55.07-11.039-90.171c-2.419-21.954-4.031-43.783-5.953-65.736l-8.062-99.721-1.798-36.403-5.271-108.838c-3.039-112.744-.372-225.488 7.628-337.612 1.178-16.496 3.163-32.992 4.589-49.364l8.992-97.736c2.543-22.45 5.83-44.775 8.806-67.225-66.605 42.171-130.294 87.814-190.698 136.682-71.752 540.031-7.132 1109.643 149.209 1640.992 71.814 243.287 163.597 481.675 271.938 713.178 9.736-153.426 26.791-306.481 50.729-458.853l-15.132-39.07m2293.643 2761.054c-.496.31-.93.31-1.674.558.744-.248 1.178-.248 1.675-.558M1222.852 5111.38c1.612-38.946 4.155-77.643 6.822-116.403l-6.822 116.403m-180.279-3650.853c1.426-36.837 4.775-72 11.287-103.504 8.31-39.938 21.209-75.287 37.519-106.543-122.853 147.845-227.163 312.062-310.201 488.124-73.302 155.597-129.364 318.078-171.225 484.961 60.403-49.364 124.217-95.008 190.388-137.054 54.822-219.721 134.202-430.636 242.232-625.984m175.814 3871.504v57.302c.186.31.62.682.868 1.054l-.868-58.357m622.76 542.884c-.248-.124-.434-.558-.682-.806h-.248l-13.395.682c-5.519.372-11.163.62-16.744.806-60.465 3.163-121.24 5.581-182.077 6.636 71.07-.93 142.077-3.349 213.147-7.318m1229.519 1374.14c53.829-14.884 107.225-31.132 160.062-48.496-52.899 17.24-106.543 33.302-160.806 48.186.248.062.434.124.744.31m172.279-147.411c-40.93-23.938-81.55-48.682-121.985-74.17l-23.256-14.326c-35.845-22.822-71.194-46.202-106.419-70.078l-37.023-24.62-86.14-61.395-54.326-39.008-63.69-48.868-73.178-56.434-40.682-33.489-91.969-76.217c-6.078-5.147-11.969-10.729-18.109-15.752-139.969-120.62-273.24-249.24-400.124-384.434-98.046 8.496-197.395 15.256-297.612 19.039 94.388 106.419 192.124 209.302 293.954 307.659 284.775 274.356 603.721 519.628 945.861 718.139 93.333-25.55 185.736-55.566 276.155-88.558l-84.775-48.062-16.682-9.426M1233.581 4936.62l-.496 8c.186-2.542.496-5.209.744-7.628-.062-.186-.186-.248-.248-.372"/><path d="M1810.077 5875.597c5.581-.186 11.225-.434 16.744-.806 4.527-.124 8.93-.682 13.519-.93-104-129.86-202.171-264.186-293.891-402.357-32.062-48.124-63.38-97.116-94.015-146.605l-20.961-34.915-64.992-108.589c-12.341-21.271-24-42.977-36.031-64.434l-45.705-81.922-39.628-76.279-9.86-18.977c-12.093 150.822-17.364 301.953-14.76 452.837 100.713 168.248 209.985 331.473 327.876 488.186 87.132.558 174.512-.868 261.705-5.209m-767.504-4415.07c77.147-139.783 168.31-271.938 275.349-393.364 24.186-27.225 48.992-53.83 74.357-79.938 16.248-24.992 34.357-47.566 56.248-65.674l-248.248 207.504c-37.767 38.884-73.922 79.566-108.899 121.426-16.31 31.256-29.209 66.605-37.519 106.543-6.512 31.504-9.861 66.667-11.287 103.504m5200.496 5828.155c-7.752 4.961-15.628 9.551-23.504 14.388-27.101 16.806-54.76 33.116-82.915 48.682 12.093-2.171 23.256-5.209 34.356-8.372 58.605-40 116.527-81.674 174.574-124.031-33.24 24.31-67.721 47.194-102.512 69.333"/><path d="M1399.1 980.465c14.574-21.829 30.636-42.17 49.426-58.915-21.891 18.109-40 40.682-56.248 65.674 2.419-2.295 4.651-4.527 6.822-6.76m2173.643 6294.946c-9.674-4.713-19.783-8.868-29.457-13.581l-7.814-4.031c-42.419-20.651-84.403-41.984-126.264-64.062l-19.845-10.481-42.791-22.822-50.729 18.109c-.496.31-.93.31-1.675.558l-63.442 21.457c-52.837 17.364-106.233 33.612-160.062 48.496 109.457 63.566 221.333 122.047 335.194 175.194 93.085-29.333 185.116-62.574 275.473-98.977-36.465-16.062-72.62-32.868-108.589-49.86"/><path d="M3344.402 7159.132c-90.419 32.992-182.822 63.008-276.155 88.558.558.31 1.054.744 1.674 1.054 54.264-14.884 107.907-30.946 160.806-48.186l63.442-21.457c.744-.248 1.178-.248 1.675-.558l50.481-18.294c-.558-.372-1.24-.62-1.923-1.116"/><path d="M3294.17 7179.101l-63.442 21.457 63.442-21.457m1.674-.558l50.729-18.109c-.124-.124-.124-.124-.248-.186l-50.481 18.294m-1667.845-1296.31l-78.201.248c88.248 117.023 181.705 229.891 278.636 339.411 100.217-3.783 199.566-10.543 297.612-19.039-99.163-105.55-194.481-214.76-284.899-327.938-71.07 3.969-142.078 6.388-213.147 7.318m182.078-6.636c5.581-.186 11.225-.434 16.744-.806-5.519.372-11.163.62-16.744.806m30.388-1.488l-.124-.248c-4.589.248-8.992.806-13.519.93 4.403-.31 8.868-.434 13.271-.682h.372m-30.389 1.489c-87.194 4.341-174.574 5.767-261.705 5.209.372.372.806.93 1.116 1.302l78.512.124c60.837-1.054 121.612-3.473 182.077-6.636"/><path d="M1549.488 5882.109s.248.248.31.372l78.202-.248c-26.17.248-52.341.124-78.512-.124M800.34 2086.512c-66.171 42.046-129.985 87.69-190.388 137.054-28.093 110.821-49.302 223.565-64.496 337.673 60.403-48.868 124.093-94.512 190.698-136.682 15.256-114.419 36.589-227.349 64.186-338.046m418.047 3245.519l-.124-55.938 2.791-115.287 1.798-49.426c1.612-38.946 4.093-77.644 6.822-116.403l3.411-50.357.496-8-26.419-51.411-36.651-76.217-36.403-76.775c-10.729-23.132-20.775-46.636-30.884-70.015l-37.767-86.016-23.752-59.473-24.372-60.155c-23.938 152.372-40.992 305.426-50.729 458.853 75.845 161.798 160 319.938 251.783 473.922v-57.302"/><path d="M1220.495 5392.62c-2.605-150.884 2.667-302.016 14.76-452.837-.496-1.054-.992-1.922-1.426-2.791l-.744 7.628-3.411 50.356-6.822 116.403-1.798 49.426-2.791 115.287.124 55.938.868 58.357c.434.682.806 1.488 1.24 2.233"/><path d="M1229.674 4994.977l3.411-50.356-3.411 50.356m-11.287 337.054l-.124-55.938.124 55.938m2.667-171.225l1.798-49.426-1.798 49.426m12.837-227.907l-.248 3.597c.124.124.186.124.186.248.062-1.054.248-2.295.372-3.349-.124-.248-.248-.372-.31-.496m608.744 940.961c-.558.124-1.364.124-2.047.248.248.248.496.558.62.806.682 0 1.364-.124 2.17-.124-.186-.31-.372-.558-.744-.93m285.767 328.806c-.682.124-1.302.124-1.985.186 126.636 134.822 259.783 263.69 399.752 384.434 6.077 5.023 12.031 10.605 18.108 15.752 30.264 25.86 61.209 50.977 91.969 76.217l40.682 33.488 73.178 56.434 63.69 48.868 54.325 39.008 86.141 61.395 37.023 24.62 106.419 70.078c7.69 4.961 15.566 9.488 23.256 14.326 40.434 25.488 81.054 50.233 121.985 74.171 5.519 3.225 11.163 6.202 16.682 9.426 28.279 16.434 57.178 31.938 85.829 47.69.744-.186 1.612-.496 2.543-.806-451.845-247.628-862.636-575.194-1219.597-955.287m-285.892-328.992c-104.124-130.047-202.418-264.558-294.263-402.977-114.046-171.597-218.419-350.636-312.744-534.698-.186 1.24-.186 2.481-.248 3.659l9.86 19.101 39.628 76.279 45.705 81.922 36.031 64.434 64.992 108.589 20.961 34.915c118.388 190.946 248.31 374.326 387.969 548.899.744 0 1.426-.062 2.109-.124m-824.558-1420.713c-184.62-474.791-296.186-974.388-309.892-1475.535-5.023-186.977 5.768-372.775 31.132-554.791-.806.558-1.612 1.054-2.419 1.55l-9.426 67.597c-3.659 32.496-6.326 65.054-8.992 97.736l-4.589 49.364c-10.17 148.093-10.294 297.364-2.356 446.45.806 12.155 1.054 24.31 1.798 36.403 2.046 33.302 5.209 66.543 8.062 99.721l5.953 65.736c3.101 30.14 7.132 60.155 11.039 90.171l9.054 69.085c5.83 40.496 12.713 80.744 19.721 120.93l6.449 38.388c8.682 46.698 18.17 93.209 28.279 139.597l4.651 22.325c10.853 48.248 22.636 96.496 35.039 144.496l4.589 18.419c12.217 46.884 25.55 93.395 39.318 139.907l6.636 23.442c13.023 43.039 27.039 86.015 41.24 128.806l10.977 33.612 40.93 114.481 17.054 46.636c4.837 12.961 10.295 25.674 15.194 38.45.31-1.116.372-2.047.558-2.977m501.704-3584.682c-43.721 38.202-85.271 78.202-125.395 119.566-3.473 5.457-7.38 10.294-10.481 16.124 82.915-88.124 172.961-170.605 272.124-245.147-38.884 28.465-76.279 58.419-112.682 89.178l-23.566 20.279m2164.341 6455.876c-.868.248-1.798.682-2.667 1.116.31.062.496.31.806.31l30.078 12.589c233.736 100.031 477.705 177.922 724.775 227.101 518.14 100.961 1053.706 75.845 1521.116-125.643 1.736-.744 3.473-1.302 5.147-1.984 43.162-18.543 85.518-39.256 127.317-61.085 9.675-4.961 19.101-10.294 28.713-15.38 5.333-2.791 10.295-6.078 15.38-9.054-1.612.31-3.411.682-5.209.806-52.527 28.589-105.612 55.38-160.31 79.442-715.039 314.047-1552.248 212.155-2285.147-108.217M1041.766 1477.333c.062-3.349.372-6.574.558-9.86-105.364 192.248-184.186 400.434-239.504 617.488 1.054-.682 2.233-1.364 3.225-2.171 55.008-212.713 132.837-416.558 235.721-605.457"/><path d="M1041.767 1477.333c92.093-169.488 204.527-326.512 336.93-468.031 2.357-4.527 5.147-8.682 7.752-13.085-135.752 141.333-250.419 299.659-344.124 471.256-.186 3.287-.496 6.512-.558 9.86M6219.565 7303.07l23.504-14.388c9.674-6.078 18.667-13.147 28.155-19.411-46.016 30.016-93.52 57.364-141.768 83.659 1.798-.124 3.597-.496 5.209-.806 28.651-15.814 57.054-31.876 84.899-49.054m51.659-33.798c32.124-20.713 63.442-42.481 94.387-65.116-30.822 23.132-62.449 44.093-94.387 65.116"/><path d="M1386.449 996.217c-2.605 4.403-5.395 8.558-7.752 13.085 1.675-1.798 3.287-3.597 5.085-5.333 3.101-5.83 7.008-10.667 10.481-16.124-2.791 2.729-5.333 5.643-7.814 8.372m2297.55 6327.938c-47.318-20.651-94.202-42.171-140.465-64.744-65.426-31.504-129.674-65.364-193.426-100.279-.868.248-1.674.62-2.667.992l41.922 23.132c6.512 3.597 13.147 6.884 19.845 10.481a4303.85 4303.85 0 0 0 126.264 64.062c12.403 6.14 24.868 11.721 37.271 17.613l108.589 49.86c.868-.434 1.798-.868 2.667-1.116m-336-166.202c-.93.31-1.798.62-2.543.806.62.372 1.24.868 1.798 1.116.93-.248 1.736-.62 2.543-.868-.558-.434-1.116-.744-1.798-1.054"/><path d="M3347.255 7159.876l.186.248 2.667-.992c-.062-.124-.062-.124-.31-.124l-2.543.868M1841.208 5874.915l2.791 3.597c89.674 111.628 184.124 219.721 282.419 324.341.682-.062 1.302-.062 1.985-.186-99.163-105.55-194.481-214.822-285.023-327.876-.806 0-1.488.124-2.17.124m1.302-1.24c-.682.062-1.364.124-2.109.124 0 0 .186.186.186.31.682-.124 1.488-.124 2.047-.248-.062 0-.062-.062-.124-.186M802.821 2084.961c-28.341 111.008-50.233 224.434-66.047 339.225.806-.496 1.612-.992 2.419-1.55 16.062-115.101 38.326-228.713 66.853-339.845-.992.806-2.17 1.488-3.225 2.171m431.07 2847.938c-80-156.465-152.434-316.713-215.938-479.938-.186.93-.248 1.86-.558 2.977l24.31 60.775 23.752 59.473 37.767 86.016 30.884 70.015 36.403 76.775 36.651 76.217 26.481 51.287c.124-1.24.186-2.419.248-3.597m1.612 3.101l-1.302-2.605c-.124 1.054-.31 2.294-.372 3.349.434.992.93 1.86 1.426 2.915.062-1.178.062-2.419.248-3.659M736.154 2424.558l-8.806 67.225c2.605-22.574 6.326-45.023 9.426-67.597-.248.124-.372.248-.62.372m-8.93 862.636c-2.419-21.954-3.969-43.783-5.954-65.736l5.953 65.736m17.736 145.24c.682 4.651 1.55 9.302 2.357 14.015l-9.054-69.085 6.698 55.07m2936.372 3892.837c.31.062.496.31.806.31-.31 0-.496-.248-.806-.31M773.487 3605.767l-6.449-38.388 6.45 38.388m-60.279-484.031l-1.798-36.403 1.798 36.403m.558-482.853c1.178-16.496 3.039-32.992 4.589-49.364l-4.589 49.364m805.892-1770.605c-41.426 36.031-81.985 73.054-120.558 112.186-1.674 2.419-3.287 4.837-4.837 7.38 40.124-41.364 81.674-81.364 125.395-119.566M3259.627 7111.07l84.775 48.062c.248-.124.682-.124 1.054-.372l-85.829-47.69m705.798 326.388c153.985 53.705 311.876 96.62 471.566 127.814-247.07-49.178-491.039-127.07-724.775-227.101 83.535 35.907 167.752 69.458 253.209 99.287m1997.829.186c-1.675.682-3.411 1.24-5.147 1.984 1.736-.744 3.473-1.302 5.147-1.984M1042.324 1467.473c0-2.419.124-4.652.248-6.947-108.031 195.349-187.411 406.264-242.232 625.985l2.481-1.55c55.318-217.054 134.14-425.24 239.504-617.488m5076.962 5893.706l-28.713 15.38c9.675-4.961 19.101-10.294 28.713-15.38m-2876.341-259.535c-40.93-23.938-81.55-48.682-121.985-74.171 40.434 25.488 81.054 50.232 121.985 74.17M1002.201 4417.488l-17.054-46.636 17.054 46.636m364.279 763.907c-12.341-21.271-24-42.977-36.031-64.434l36.031 64.434m1177.799 1421.643l-18.109-15.752c6.14 5.023 12.031 10.605 18.109 15.752m-1091.845-1278.14l-20.961-34.915 20.961 34.915m1224.496 1387.845l-40.682-33.488 40.682 33.488m277.333 205.705c-29.085-20.093-57.55-40.744-86.14-61.395l86.14 61.395m143.442 94.698c-35.845-22.822-71.194-46.202-106.419-70.078l106.419 70.078m-283.907-195.1l-63.69-48.868 63.69 48.868M1284.743 5035.039l-39.628-76.279 39.628 76.279M846.046 3930.605c-1.612-6.078-2.977-12.217-4.589-18.419l4.589 18.419m-39.628-162.915l-4.651-22.326 4.651 22.326m849.488-3008.868c-38.698 28.217-76.031 58.233-112.682 89.178 36.403-30.76 73.798-60.713 112.682-89.178M891.999 4093.954l-6.636-23.442 6.636 23.442m52.217 162.419c-3.783-11.039-7.256-22.325-10.977-33.612l10.977 33.612"/><path d="M1386.449 996.217c1.799-3.101 4.031-5.891 5.83-8.992-25.364 26.109-50.171 52.713-74.357 79.938-107.039 121.426-198.202 253.581-275.349 393.364-.124 2.295-.248 4.527-.248 6.946 93.705-171.597 208.372-329.922 344.124-471.256m4856.62 6292.465c-7.752 4.961-15.628 9.55-23.504 14.388l23.504-14.388"/><path d="M1394.263 987.845l4.837-7.38-6.822 6.76c-1.799 3.101-4.031 5.891-5.83 8.992 2.481-2.729 5.023-5.644 7.814-8.372m1952.31 6172.589l42.791 22.822c-14.077-7.38-27.783-15.504-41.922-23.132-.372.124-.62.124-.868.31m226.171 114.977l108.589 49.86c-36.465-16.062-72.62-32.868-108.589-49.86m-37.271-17.613c-42.419-20.651-84.465-41.984-126.264-64.062 41.86 22.078 83.845 43.411 126.264 64.062m-191.07-98.667c.682.496 1.364.744 1.923 1.116.372 0 .682-.124.93-.372-.558-.248-1.178-.744-1.798-1.116-.372.248-.806.248-1.054.372"/><path d="M3347.255 7159.876c-.248.248-.558.372-.93.372.124.062.124.062.248.186.248-.186.496-.186.868-.31l-.186-.248M802.821 2084.961l-2.481 1.55c-27.597 110.698-48.93 223.628-64.186 338.046.248-.124.372-.248.62-.372 15.814-114.791 37.706-228.217 66.047-339.225m404.341 2800.248l-36.651-76.217 36.651 76.217m-141.705-309.023l-23.752-59.473 23.752 59.473m68.651 156.031c-10.729-23.132-20.775-46.636-30.884-70.015l30.884 70.015"/></g></svg>